<?xml version="1.0" encoding="UTF-8" standalone="no" ?>
<!DOCTYPE svg PUBLIC "-//W3C//DTD SVG 1.1//EN" "http://www.w3.org/Graphics/SVG/1.1/DTD/svg11.dtd">
<svg xmlns="http://www.w3.org/2000/svg" xmlns:xlink="http://www.w3.org/1999/xlink" version="1.1" width="3168" height="792" viewBox="0 0 3168 792" xml:space="preserve">
<desc>Created with Fabric.js 5.3.0</desc>
<defs>
</defs>
<g transform="matrix(4.6597521307994505 0 0 4.6597521307994505 1584.3463508715686 396.4591832881071)" id="background-9c059028-eb1a-42a5-806a-d6ad5b44e925"  >
<rect style="stroke: none; stroke-width: 0; stroke-dasharray: none; stroke-linecap: butt; stroke-dashoffset: 0; stroke-linejoin: miter; stroke-miterlimit: 4; fill: rgb(39,18,104); fill-rule: nonzero; opacity: 1;"  paint-order="stroke"  x="-340" y="-85" rx="0" ry="0" width="680" height="170" />
</g>
<g transform="matrix(1.3645285389024104 0 0 1.3645285389024104 1584.3463508715688 396.34635087156903)" id="shape-c32c9372-064f-4aa9-bf07-bc240e248e8a"  >
<g style="opacity: 0.3;"  paint-order="stroke"   >
		<g transform="matrix(1 0 0 1 0 0)" id="shape_-_1"  >
<path style="stroke: none; stroke-width: 1; stroke-dasharray: none; stroke-linecap: butt; stroke-dashoffset: 0; stroke-linejoin: miter; stroke-miterlimit: 4; fill: rgb(243,135,129); fill-rule: nonzero; opacity: 1;"  paint-order="stroke"  transform=" translate(-549.8999999999999, -608.4)" d="M 1764.1 1881.6 L 1763.1 1881.6 L 1763.1 1822.6 L 1684.8999999999999 1822.6 L 1684.8999999999999 1881.6 L 1683.8999999999999 1881.6 L 1683.8999999999999 1822.6 L 1605.6 1822.6 L 1605.6 1881.6 L 1604.6 1881.6 L 1604.6 1822.6 L 1526.3 1822.6 L 1526.3 1881.6 L 1525.3 1881.6 L 1525.3 1822.6 L 1452 1822.6 L 1452 1881.6 L 1451 1881.6 L 1451 1822.6 L 1372.8 1822.6 L 1372.8 1881.6 L 1371.8 1881.6 L 1371.8 1822.6 L 1293.5 1822.6 L 1293.5 1881.6 L 1292.5 1881.6 L 1292.5 1822.6 L 1214.2 1822.6 L 1214.2 1881.6 L 1213.2 1881.6 L 1213.2 1822.6 L 1140 1822.6 L 1140 1879.3 L 1139 1879.3 L 1139 1822.6 L 1060.7 1822.6 L 1060.7 1879.3 L 1059.7 1879.3 L 1059.7 1822.6 L 981.4000000000001 1822.6 L 981.4000000000001 1879.3 L 980.4000000000001 1879.3 L 980.4000000000001 1822.6 L 902.1000000000001 1822.6 L 902.1000000000001 1879.3 L 901.1000000000001 1879.3 L 901.1000000000001 1822.6 L 827.9000000000001 1822.6 L 827.9000000000001 1879.3 L 826.9000000000001 1879.3 L 826.9000000000001 1822.6 L 748.6000000000001 1822.6 L 748.6000000000001 1879.3 L 747.6000000000001 1879.3 L 747.6000000000001 1822.6 L 669.3000000000002 1822.6 L 669.3000000000002 1879.3 L 668.3000000000002 1879.3 L 668.3000000000002 1822.6 L 590 1822.6 L 590 1879.3 L 589 1879.3 L 589 1822.6 L 510.8 1822.6 L 510.8 1880.3999999999999 L 509.8 1880.3999999999999 L 509.8 1822.6 L 431.5 1822.6 L 431.5 1880.3999999999999 L 430.5 1880.3999999999999 L 430.5 1822.6 L 352.2 1822.6 L 352.2 1880.3999999999999 L 351.2 1880.3999999999999 L 351.2 1822.6 L 273 1822.6 L 273 1880.3999999999999 L 272 1880.3999999999999 L 272 1822.6 L 198.7 1822.6 L 198.7 1880.3999999999999 L 197.7 1880.3999999999999 L 197.7 1822.6 L 119.39999999999999 1822.6 L 119.39999999999999 1880.3999999999999 L 118.39999999999999 1880.3999999999999 L 118.39999999999999 1822.6 L 40.1 1822.6 L 40.1 1880.3999999999999 L 39.1 1880.3999999999999 L 39.1 1822.6 L -39.1 1822.6 L -39.1 1880.3999999999999 L -40.1 1880.3999999999999 L -40.1 1822.6 L -113.4 1822.6 L -113.4 1878.1 L -114.4 1878.1 L -114.4 1822.6 L -192.7 1822.6 L -192.7 1878.1 L -193.7 1878.1 L -193.7 1822.6 L -272 1822.6 L -272 1878.1 L -273 1878.1 L -273 1822.6 L -351.2 1822.6 L -351.2 1878.1 L -352.2 1878.1 L -352.2 1822.6 L -425.5 1822.6 L -425.5 1878.1 L -426.5 1878.1 L -426.5 1822.6 L -504.8 1822.6 L -504.8 1878.1 L -505.8 1878.1 L -505.8 1822.6 L -584 1822.6 L -584 1878.1 L -585 1878.1 L -585 1822.6 L -663.3 1822.6 L -663.3 1878.1 L -664.3 1878.1 L -664.3 1822.6 L -723.3 1822.6 L -723.3 1821.6 L -664.3 1821.6 L -664.3 1743.3999999999999 L -723.3 1743.3999999999999 L -723.3 1742.3999999999999 L -664.3 1742.3999999999999 L -664.3 1664.1 L -723.3 1664.1 L -723.3 1663.1 L -664.3 1663.1 L -664.3 1584.8 L -723.3 1584.8 L -723.3 1583.8 L -664.3 1583.8 L -664.3 1510.5 L -723.3 1510.5 L -723.3 1509.5 L -664.3 1509.5 L -664.3 1431.3 L -723.3 1431.3 L -723.3 1430.3 L -664.3 1430.3 L -664.3 1352 L -723.3 1352 L -723.3 1351 L -664.3 1351 L -664.3 1272.7 L -723.3 1272.7 L -723.3 1271.7 L -664.3 1271.7 L -664.3 1198.4 L -720.9 1198.4 L -720.9 1197.4 L -664.3 1197.4 L -664.3 1119.2 L -720.9 1119.2 L -720.9 1118.2 L -664.3 1118.2 L -664.3 1039.9 L -720.9 1039.9 L -720.9 1038.9 L -664.3 1038.9 L -664.3 960.6000000000001 L -720.9 960.6000000000001 L -720.9 959.6000000000001 L -664.3 959.6000000000001 L -664.3 886.4000000000001 L -720.9 886.4000000000001 L -720.9 885.4000000000001 L -664.3 885.4000000000001 L -664.3 807.1000000000001 L -720.9 807.1000000000001 L -720.9 806.1000000000001 L -664.3 806.1000000000001 L -664.3 727.8000000000002 L -720.9 727.8000000000002 L -720.9 726.8000000000002 L -664.3 726.8000000000002 L -664.3 648.5000000000002 L -720.9 648.5000000000002 L -720.9 647.5000000000002 L -664.3 647.5000000000002 L -664.3 569.3000000000002 L -722.0999999999999 569.3000000000002 L -722.0999999999999 568.3000000000002 L -664.3 568.3000000000002 L -664.3 490 L -722.0999999999999 490 L -722.0999999999999 489 L -664.3 489 L -664.3 410.7 L -722.0999999999999 410.7 L -722.0999999999999 409.7 L -664.3 409.7 L -664.3 331.4 L -722.0999999999999 331.4 L -722.0999999999999 330.4 L -664.3 330.4 L -664.3 257.2 L -722.0999999999999 257.2 L -722.0999999999999 256.2 L -664.3 256.2 L -664.3 177.89999999999998 L -722.0999999999999 177.89999999999998 L -722.0999999999999 176.89999999999998 L -664.3 176.89999999999998 L -664.3 98.6 L -722.0999999999999 98.6 L -722.0999999999999 97.6 L -664.3 97.6 L -664.3 19.4 L -722.0999999999999 19.4 L -722.0999999999999 18.4 L -664.3 18.4 L -664.3 -54.9 L -719.8 -54.9 L -719.8 -55.9 L -664.3 -55.9 L -664.3 -134.2 L -719.8 -134.2 L -719.8 -135.2 L -664.3 -135.2 L -664.3 -213.5 L -719.8 -213.5 L -719.8 -214.5 L -664.3 -214.5 L -664.3 -292.7 L -719.8 -292.7 L -719.8 -293.7 L -664.3 -293.7 L -664.3 -367 L -719.8 -367 L -719.8 -368 L -664.3 -368 L -664.3 -446.3 L -719.8 -446.3 L -719.8 -447.3 L -664.3 -447.3 L -664.3 -525.6 L -719.8 -525.6 L -719.8 -526.6 L -664.3 -526.6 L -664.3 -604.8000000000001 L -719.8 -604.8000000000001 L -719.8 -605.8000000000001 L -664.3 -605.8000000000001 L -664.3 -664.8000000000001 L -663.3 -664.8000000000001 L -663.3 -605.8000000000001 L -585 -605.8000000000001 L -585 -664.8000000000001 L -584 -664.8000000000001 L -584 -605.8000000000001 L -505.8 -605.8000000000001 L -505.8 -664.8000000000001 L -504.8 -664.8000000000001 L -504.8 -605.8000000000001 L -426.5 -605.8000000000001 L -426.5 -664.8000000000001 L -425.5 -664.8000000000001 L -425.5 -605.8000000000001 L -352.2 -605.8000000000001 L -352.2 -664.8000000000001 L -351.2 -664.8000000000001 L -351.2 -605.8000000000001 L -273 -605.8000000000001 L -273 -664.8000000000001 L -272 -664.8000000000001 L -272 -605.8000000000001 L -193.7 -605.8000000000001 L -193.7 -664.8000000000001 L -192.7 -664.8000000000001 L -192.7 -605.8000000000001 L -114.39999999999999 -605.8000000000001 L -114.39999999999999 -664.8000000000001 L -113.39999999999999 -664.8000000000001 L -113.39999999999999 -605.8000000000001 L -40.099999999999994 -605.8000000000001 L -40.099999999999994 -662.5000000000001 L -39.099999999999994 -662.5000000000001 L -39.099999999999994 -605.8000000000001 L 39.10000000000001 -605.8000000000001 L 39.10000000000001 -662.5000000000001 L 40.10000000000001 -662.5000000000001 L 40.10000000000001 -605.8000000000001 L 118.4 -605.8000000000001 L 118.4 -662.5000000000001 L 119.4 -662.5000000000001 L 119.4 -605.8000000000001 L 197.7 -605.8000000000001 L 197.7 -662.5000000000001 L 198.7 -662.5000000000001 L 198.7 -605.8000000000001 L 272 -605.8000000000001 L 272 -662.5000000000001 L 273 -662.5000000000001 L 273 -605.8000000000001 L 351.2 -605.8000000000001 L 351.2 -662.5000000000001 L 352.2 -662.5000000000001 L 352.2 -605.8000000000001 L 430.5 -605.8000000000001 L 430.5 -662.5000000000001 L 431.5 -662.5000000000001 L 431.5 -605.8000000000001 L 509.8 -605.8000000000001 L 509.8 -662.5000000000001 L 510.8 -662.5000000000001 L 510.8 -605.8000000000001 L 589 -605.8000000000001 L 589 -663.6 L 590 -663.6 L 590 -605.8000000000001 L 668.3 -605.8000000000001 L 668.3 -663.6 L 669.3 -663.6 L 669.3 -605.8000000000001 L 747.5999999999999 -605.8000000000001 L 747.5999999999999 -663.6 L 748.5999999999999 -663.6 L 748.5999999999999 -605.8000000000001 L 826.8999999999999 -605.8000000000001 L 826.8999999999999 -663.6 L 827.8999999999999 -663.6 L 827.8999999999999 -605.8000000000001 L 901.0999999999999 -605.8000000000001 L 901.0999999999999 -663.6 L 902.0999999999999 -663.6 L 902.0999999999999 -605.8000000000001 L 980.3999999999999 -605.8000000000001 L 980.3999999999999 -663.6 L 981.3999999999999 -663.6 L 981.3999999999999 -605.8000000000001 L 1059.6999999999998 -605.8000000000001 L 1059.6999999999998 -663.6 L 1060.6999999999998 -663.6 L 1060.6999999999998 -605.8000000000001 L 1138.9999999999998 -605.8000000000001 L 1138.9999999999998 -663.6 L 1139.9999999999998 -663.6 L 1139.9999999999998 -605.8000000000001 L 1213.1999999999998 -605.8000000000001 L 1213.1999999999998 -661.3000000000001 L 1214.1999999999998 -661.3000000000001 L 1214.1999999999998 -605.8000000000001 L 1292.4999999999998 -605.8000000000001 L 1292.4999999999998 -661.3000000000001 L 1293.4999999999998 -661.3000000000001 L 1293.4999999999998 -605.8000000000001 L 1371.7999999999997 -605.8000000000001 L 1371.7999999999997 -661.3000000000001 L 1372.7999999999997 -661.3000000000001 L 1372.7999999999997 -605.8000000000001 L 1450.9999999999998 -605.8000000000001 L 1450.9999999999998 -661.3000000000001 L 1451.9999999999998 -661.3000000000001 L 1451.9999999999998 -605.8000000000001 L 1525.2999999999997 -605.8000000000001 L 1525.2999999999997 -661.3000000000001 L 1526.2999999999997 -661.3000000000001 L 1526.2999999999997 -605.8000000000001 L 1604.5999999999997 -605.8000000000001 L 1604.5999999999997 -661.3000000000001 L 1605.5999999999997 -661.3000000000001 L 1605.5999999999997 -605.8000000000001 L 1683.8999999999996 -605.8000000000001 L 1683.8999999999996 -661.3000000000001 L 1684.8999999999996 -661.3000000000001 L 1684.8999999999996 -605.8000000000001 L 1763.0999999999997 -605.8000000000001 L 1763.0999999999997 -661.3000000000001 L 1764.0999999999997 -661.3000000000001 L 1764.0999999999997 -605.8000000000001 L 1823.0999999999997 -605.8000000000001 L 1823.0999999999997 -604.8000000000001 L 1764.0999999999997 -604.8000000000001 L 1764.0999999999997 -526.6 L 1823.0999999999997 -526.6 L 1823.0999999999997 -525.6 L 1764.0999999999997 -525.6 L 1764.0999999999997 -447.3 L 1823.0999999999997 -447.3 L 1823.0999999999997 -446.3 L 1764.0999999999997 -446.3 L 1764.0999999999997 -368 L 1823.0999999999997 -368 L 1823.0999999999997 -367 L 1764.0999999999997 -367 L 1764.0999999999997 -293.7 L 1823.0999999999997 -293.7 L 1823.0999999999997 -292.7 L 1764.0999999999997 -292.7 L 1764.0999999999997 -214.5 L 1823.0999999999997 -214.5 L 1823.0999999999997 -213.5 L 1764.0999999999997 -213.5 L 1764.0999999999997 -135.2 L 1823.0999999999997 -135.2 L 1823.0999999999997 -134.2 L 1764.0999999999997 -134.2 L 1764.0999999999997 -55.89999999999999 L 1823.0999999999997 -55.89999999999999 L 1823.0999999999997 -54.89999999999999 L 1764.0999999999997 -54.89999999999999 L 1764.0999999999997 18.400000000000006 L 1820.7999999999997 18.400000000000006 L 1820.7999999999997 19.400000000000006 L 1764.0999999999997 19.400000000000006 L 1764.0999999999997 97.60000000000001 L 1820.7999999999997 97.60000000000001 L 1820.7999999999997 98.60000000000001 L 1764.0999999999997 98.60000000000001 L 1764.0999999999997 176.9 L 1820.7999999999997 176.9 L 1820.7999999999997 177.9 L 1764.0999999999997 177.9 L 1764.0999999999997 256.2 L 1820.7999999999997 256.2 L 1820.7999999999997 257.2 L 1764.0999999999997 257.2 L 1764.0999999999997 330.4 L 1820.7999999999997 330.4 L 1820.7999999999997 331.4 L 1764.0999999999997 331.4 L 1764.0999999999997 409.7 L 1820.7999999999997 409.7 L 1820.7999999999997 410.7 L 1764.0999999999997 410.7 L 1764.0999999999997 489 L 1820.7999999999997 489 L 1820.7999999999997 490 L 1764.0999999999997 490 L 1764.0999999999997 568.3 L 1820.7999999999997 568.3 L 1820.7999999999997 569.3 L 1764.0999999999997 569.3 L 1764.0999999999997 647.5 L 1821.9999999999998 647.5 L 1821.9999999999998 648.5 L 1764.0999999999997 648.5 L 1764.0999999999997 726.8 L 1821.9999999999998 726.8 L 1821.9999999999998 727.8 L 1764.0999999999997 727.8 L 1764.0999999999997 806.0999999999999 L 1821.9999999999998 806.0999999999999 L 1821.9999999999998 807.0999999999999 L 1764.0999999999997 807.0999999999999 L 1764.0999999999997 885.3999999999999 L 1821.9999999999998 885.3999999999999 L 1821.9999999999998 886.3999999999999 L 1764.0999999999997 886.3999999999999 L 1764.0999999999997 959.5999999999999 L 1821.9999999999998 959.5999999999999 L 1821.9999999999998 960.5999999999999 L 1764.0999999999997 960.5999999999999 L 1764.0999999999997 1038.8999999999999 L 1821.9999999999998 1038.8999999999999 L 1821.9999999999998 1039.8999999999999 L 1764.0999999999997 1039.8999999999999 L 1764.0999999999997 1118.1999999999998 L 1821.9999999999998 1118.1999999999998 L 1821.9999999999998 1119.1999999999998 L 1764.0999999999997 1119.1999999999998 L 1764.0999999999997 1197.3999999999999 L 1821.9999999999998 1197.3999999999999 L 1821.9999999999998 1198.3999999999999 L 1764.0999999999997 1198.3999999999999 L 1764.0999999999997 1271.6999999999998 L 1819.5999999999997 1271.6999999999998 L 1819.5999999999997 1272.6999999999998 L 1764.0999999999997 1272.6999999999998 L 1764.0999999999997 1350.9999999999998 L 1819.5999999999997 1350.9999999999998 L 1819.5999999999997 1351.9999999999998 L 1764.0999999999997 1351.9999999999998 L 1764.0999999999997 1430.2999999999997 L 1819.5999999999997 1430.2999999999997 L 1819.5999999999997 1431.2999999999997 L 1764.0999999999997 1431.2999999999997 L 1764.0999999999997 1509.4999999999998 L 1819.5999999999997 1509.4999999999998 L 1819.5999999999997 1510.4999999999998 L 1764.0999999999997 1510.4999999999998 L 1764.0999999999997 1583.7999999999997 L 1819.5999999999997 1583.7999999999997 L 1819.5999999999997 1584.7999999999997 L 1764.0999999999997 1584.7999999999997 L 1764.0999999999997 1663.0999999999997 L 1819.5999999999997 1663.0999999999997 L 1819.5999999999997 1664.0999999999997 L 1764.0999999999997 1664.0999999999997 L 1764.0999999999997 1742.3999999999996 L 1819.5999999999997 1742.3999999999996 L 1819.5999999999997 1743.3999999999996 L 1764.0999999999997 1743.3999999999996 L 1764.0999999999997 1821.5999999999997 L 1819.5999999999997 1821.5999999999997 L 1819.5999999999997 1822.5999999999997 L 1764.0999999999997 1822.5999999999997 L 1764.0999999999997 1881.6 z M 1684.9 1821.6 L 1763.1000000000001 1821.6 L 1763.1000000000001 1743.3999999999999 L 1684.9 1743.3999999999999 L 1684.9 1821.6 z M 1605.6 1821.6 L 1683.8999999999999 1821.6 L 1683.8999999999999 1743.3999999999999 L 1605.6 1743.3999999999999 L 1605.6 1821.6 z M 1526.3 1821.6 L 1604.6 1821.6 L 1604.6 1743.3999999999999 L 1526.3 1743.3999999999999 L 1526.3 1821.6 z M 1452 1821.6 L 1525.3 1821.6 L 1525.3 1743.3999999999999 L 1452 1743.3999999999999 L 1452 1821.6 z M 1372.8 1821.6 L 1451 1821.6 L 1451 1743.3999999999999 L 1372.8 1743.3999999999999 L 1372.8 1821.6 z M 1293.5 1821.6 L 1371.8 1821.6 L 1371.8 1743.3999999999999 L 1293.5 1743.3999999999999 L 1293.5 1821.6 z M 1214.2 1821.6 L 1292.5 1821.6 L 1292.5 1743.3999999999999 L 1214.2 1743.3999999999999 L 1214.2 1821.6 z M 1140 1821.6 L 1213.2 1821.6 L 1213.2 1743.3999999999999 L 1140 1743.3999999999999 L 1140 1821.6 z M 1060.7 1821.6 L 1139 1821.6 L 1139 1743.3999999999999 L 1060.7 1743.3999999999999 L 1060.7 1821.6 z M 981.4 1821.6 L 1059.7 1821.6 L 1059.7 1743.3999999999999 L 981.4000000000001 1743.3999999999999 L 981.4000000000001 1821.6 z M 902.1 1821.6 L 980.4 1821.6 L 980.4 1743.3999999999999 L 902.1 1743.3999999999999 L 902.1 1821.6 z M 827.9 1821.6 L 901.1 1821.6 L 901.1 1743.3999999999999 L 827.9 1743.3999999999999 L 827.9 1821.6 z M 748.6 1821.6 L 826.9 1821.6 L 826.9 1743.3999999999999 L 748.6 1743.3999999999999 L 748.6 1821.6 z M 669.3 1821.6 L 747.5999999999999 1821.6 L 747.5999999999999 1743.3999999999999 L 669.3 1743.3999999999999 L 669.3 1821.6 z M 590 1821.6 L 668.3 1821.6 L 668.3 1743.3999999999999 L 590 1743.3999999999999 L 590 1821.6 z M 510.8 1821.6 L 589 1821.6 L 589 1743.3999999999999 L 510.8 1743.3999999999999 L 510.8 1821.6 z M 431.5 1821.6 L 509.8 1821.6 L 509.8 1743.3999999999999 L 431.5 1743.3999999999999 L 431.5 1821.6 z M 352.2 1821.6 L 430.5 1821.6 L 430.5 1743.3999999999999 L 352.2 1743.3999999999999 L 352.2 1821.6 z M 273 1821.6 L 351.2 1821.6 L 351.2 1743.3999999999999 L 273 1743.3999999999999 L 273 1821.6 z M 198.7 1821.6 L 272 1821.6 L 272 1743.3999999999999 L 198.7 1743.3999999999999 L 198.7 1821.6 z M 119.4 1821.6 L 197.7 1821.6 L 197.7 1743.3999999999999 L 119.39999999999999 1743.3999999999999 L 119.39999999999999 1821.6 z M 40.1 1821.6 L 118.4 1821.6 L 118.4 1743.3999999999999 L 40.1 1743.3999999999999 L 40.1 1821.6 z M -39.1 1821.6 L 39.1 1821.6 L 39.1 1743.3999999999999 L -39.1 1743.3999999999999 L -39.1 1821.6 z M -113.4 1821.6 L -40.10000000000001 1821.6 L -40.10000000000001 1743.3999999999999 L -113.4 1743.3999999999999 L -113.4 1821.6 z M -192.7 1821.6 L -114.39999999999999 1821.6 L -114.39999999999999 1743.3999999999999 L -192.7 1743.3999999999999 L -192.7 1821.6 z M -272 1821.6 L -193.7 1821.6 L -193.7 1743.3999999999999 L -272 1743.3999999999999 L -272 1821.6 z M -351.2 1821.6 L -273 1821.6 L -273 1743.3999999999999 L -351.2 1743.3999999999999 L -351.2 1821.6 z M -425.5 1821.6 L -352.2 1821.6 L -352.2 1743.3999999999999 L -425.5 1743.3999999999999 L -425.5 1821.6 z M -504.8 1821.6 L -426.5 1821.6 L -426.5 1743.3999999999999 L -504.8 1743.3999999999999 L -504.8 1821.6 z M -584 1821.6 L -505.8 1821.6 L -505.8 1743.3999999999999 L -584 1743.3999999999999 L -584 1821.6 z M -663.3 1821.6 L -585 1821.6 L -585 1743.3999999999999 L -663.3 1743.3999999999999 L -663.3 1821.6 z M 1684.9 1742.4 L 1763.1000000000001 1742.4 L 1763.1000000000001 1664.1000000000001 L 1684.9 1664.1000000000001 L 1684.9 1742.4 z M 1605.6 1742.4 L 1683.8999999999999 1742.4 L 1683.8999999999999 1664.1000000000001 L 1605.6 1664.1000000000001 L 1605.6 1742.4 z M 1526.3 1742.4 L 1604.6 1742.4 L 1604.6 1664.1000000000001 L 1526.3 1664.1000000000001 L 1526.3 1742.4 z M 1452 1742.4 L 1525.3 1742.4 L 1525.3 1664.1000000000001 L 1452 1664.1000000000001 L 1452 1742.4 z M 1372.8 1742.4 L 1451 1742.4 L 1451 1664.1000000000001 L 1372.8 1664.1000000000001 L 1372.8 1742.4 z M 1293.5 1742.4 L 1371.8 1742.4 L 1371.8 1664.1000000000001 L 1293.5 1664.1000000000001 L 1293.5 1742.4 z M 1214.2 1742.4 L 1292.5 1742.4 L 1292.5 1664.1000000000001 L 1214.2 1664.1000000000001 L 1214.2 1742.4 z M 1140 1742.4 L 1213.2 1742.4 L 1213.2 1664.1000000000001 L 1140 1664.1000000000001 L 1140 1742.4 z M 1060.7 1742.4 L 1139 1742.4 L 1139 1664.1000000000001 L 1060.7 1664.1000000000001 L 1060.7 1742.4 z M 981.4 1742.4 L 1059.7 1742.4 L 1059.7 1664.1000000000001 L 981.4000000000001 1664.1000000000001 L 981.4000000000001 1742.4 z M 902.1 1742.4 L 980.4 1742.4 L 980.4 1664.1000000000001 L 902.1 1664.1000000000001 L 902.1 1742.4 z M 827.9 1742.4 L 901.1 1742.4 L 901.1 1664.1000000000001 L 827.9 1664.1000000000001 L 827.9 1742.4 z M 748.6 1742.4 L 826.9 1742.4 L 826.9 1664.1000000000001 L 748.6 1664.1000000000001 L 748.6 1742.4 z M 669.3 1742.4 L 747.5999999999999 1742.4 L 747.5999999999999 1664.1000000000001 L 669.3 1664.1000000000001 L 669.3 1742.4 z M 590 1742.4 L 668.3 1742.4 L 668.3 1664.1000000000001 L 590 1664.1000000000001 L 590 1742.4 z M 510.8 1742.4 L 589 1742.4 L 589 1664.1000000000001 L 510.8 1664.1000000000001 L 510.8 1742.4 z M 431.5 1742.4 L 509.8 1742.4 L 509.8 1664.1000000000001 L 431.5 1664.1000000000001 L 431.5 1742.4 z M 352.2 1742.4 L 430.5 1742.4 L 430.5 1664.1000000000001 L 352.2 1664.1000000000001 L 352.2 1742.4 z M 273 1742.4 L 351.2 1742.4 L 351.2 1664.1000000000001 L 273 1664.1000000000001 L 273 1742.4 z M 198.7 1742.4 L 272 1742.4 L 272 1664.1000000000001 L 198.7 1664.1000000000001 L 198.7 1742.4 z M 119.4 1742.4 L 197.7 1742.4 L 197.7 1664.1000000000001 L 119.39999999999999 1664.1000000000001 L 119.39999999999999 1742.4 z M 40.1 1742.4 L 118.4 1742.4 L 118.4 1664.1000000000001 L 40.1 1664.1000000000001 L 40.1 1742.4 z M -39.1 1742.4 L 39.1 1742.4 L 39.1 1664.1000000000001 L -39.1 1664.1000000000001 L -39.1 1742.4 z M -113.4 1742.4 L -40.10000000000001 1742.4 L -40.10000000000001 1664.1000000000001 L -113.4 1664.1000000000001 L -113.4 1742.4 z M -192.7 1742.4 L -114.39999999999999 1742.4 L -114.39999999999999 1664.1000000000001 L -192.7 1664.1000000000001 L -192.7 1742.4 z M -272 1742.4 L -193.7 1742.4 L -193.7 1664.1000000000001 L -272 1664.1000000000001 L -272 1742.4 z M -351.2 1742.4 L -273 1742.4 L -273 1664.1000000000001 L -351.2 1664.1000000000001 L -351.2 1742.4 z M -425.5 1742.4 L -352.2 1742.4 L -352.2 1664.1000000000001 L -425.5 1664.1000000000001 L -425.5 1742.4 z M -504.8 1742.4 L -426.5 1742.4 L -426.5 1664.1000000000001 L -504.8 1664.1000000000001 L -504.8 1742.4 z M -584 1742.4 L -505.8 1742.4 L -505.8 1664.1000000000001 L -584 1664.1000000000001 L -584 1742.4 z M -663.3 1742.4 L -585 1742.4 L -585 1664.1000000000001 L -663.3 1664.1000000000001 L -663.3 1742.4 z M 1684.9 1663.1 L 1763.1000000000001 1663.1 L 1763.1000000000001 1584.8 L 1684.9 1584.8 L 1684.9 1663.1 z M 1605.6 1663.1 L 1683.8999999999999 1663.1 L 1683.8999999999999 1584.8 L 1605.6 1584.8 L 1605.6 1663.1 z M 1526.3 1663.1 L 1604.6 1663.1 L 1604.6 1584.8 L 1526.3 1584.8 L 1526.3 1663.1 z M 1452 1663.1 L 1525.3 1663.1 L 1525.3 1584.8 L 1452 1584.8 L 1452 1663.1 z M 1372.8 1663.1 L 1451 1663.1 L 1451 1584.8 L 1372.8 1584.8 L 1372.8 1663.1 z M 1293.5 1663.1 L 1371.8 1663.1 L 1371.8 1584.8 L 1293.5 1584.8 L 1293.5 1663.1 z M 1214.2 1663.1 L 1292.5 1663.1 L 1292.5 1584.8 L 1214.2 1584.8 L 1214.2 1663.1 z M 1140 1663.1 L 1213.2 1663.1 L 1213.2 1584.8 L 1140 1584.8 L 1140 1663.1 z M 1060.7 1663.1 L 1139 1663.1 L 1139 1584.8 L 1060.7 1584.8 L 1060.7 1663.1 z M 981.4 1663.1 L 1059.7 1663.1 L 1059.7 1584.8 L 981.4000000000001 1584.8 L 981.4000000000001 1663.1 z M 902.1 1663.1 L 980.4 1663.1 L 980.4 1584.8 L 902.1 1584.8 L 902.1 1663.1 z M 827.9 1663.1 L 901.1 1663.1 L 901.1 1584.8 L 827.9 1584.8 L 827.9 1663.1 z M 748.6 1663.1 L 826.9 1663.1 L 826.9 1584.8 L 748.6 1584.8 L 748.6 1663.1 z M 669.3 1663.1 L 747.5999999999999 1663.1 L 747.5999999999999 1584.8 L 669.3 1584.8 L 669.3 1663.1 z M 590 1663.1 L 668.3 1663.1 L 668.3 1584.8 L 590 1584.8 L 590 1663.1 z M 510.8 1663.1 L 589 1663.1 L 589 1584.8 L 510.8 1584.8 L 510.8 1663.1 z M 431.5 1663.1 L 509.8 1663.1 L 509.8 1584.8 L 431.5 1584.8 L 431.5 1663.1 z M 352.2 1663.1 L 430.5 1663.1 L 430.5 1584.8 L 352.2 1584.8 L 352.2 1663.1 z M 273 1663.1 L 351.2 1663.1 L 351.2 1584.8 L 273 1584.8 L 273 1663.1 z M 198.7 1663.1 L 272 1663.1 L 272 1584.8 L 198.7 1584.8 L 198.7 1663.1 z M 119.4 1663.1 L 197.7 1663.1 L 197.7 1584.8 L 119.39999999999999 1584.8 L 119.39999999999999 1663.1 z M 40.1 1663.1 L 118.4 1663.1 L 118.4 1584.8 L 40.1 1584.8 L 40.1 1663.1 z M -39.1 1663.1 L 39.1 1663.1 L 39.1 1584.8 L -39.1 1584.8 L -39.1 1663.1 z M -113.4 1663.1 L -40.10000000000001 1663.1 L -40.10000000000001 1584.8 L -113.4 1584.8 L -113.4 1663.1 z M -192.7 1663.1 L -114.39999999999999 1663.1 L -114.39999999999999 1584.8 L -192.7 1584.8 L -192.7 1663.1 z M -272 1663.1 L -193.7 1663.1 L -193.7 1584.8 L -272 1584.8 L -272 1663.1 z M -351.2 1663.1 L -273 1663.1 L -273 1584.8 L -351.2 1584.8 L -351.2 1663.1 z M -425.5 1663.1 L -352.2 1663.1 L -352.2 1584.8 L -425.5 1584.8 L -425.5 1663.1 z M -504.8 1663.1 L -426.5 1663.1 L -426.5 1584.8 L -504.8 1584.8 L -504.8 1663.1 z M -584 1663.1 L -505.8 1663.1 L -505.8 1584.8 L -584 1584.8 L -584 1663.1 z M -663.3 1663.1 L -585 1663.1 L -585 1584.8 L -663.3 1584.8 L -663.3 1663.1 z M 1684.9 1583.8 L 1763.1000000000001 1583.8 L 1763.1000000000001 1510.5 L 1684.9 1510.5 L 1684.9 1583.8 z M 1605.6 1583.8 L 1683.8999999999999 1583.8 L 1683.8999999999999 1510.5 L 1605.6 1510.5 L 1605.6 1583.8 z M 1526.3 1583.8 L 1604.6 1583.8 L 1604.6 1510.5 L 1526.3 1510.5 L 1526.3 1583.8 z M 1452 1583.8 L 1525.3 1583.8 L 1525.3 1510.5 L 1452 1510.5 L 1452 1583.8 z M 1372.8 1583.8 L 1451 1583.8 L 1451 1510.5 L 1372.8 1510.5 L 1372.8 1583.8 z M 1293.5 1583.8 L 1371.8 1583.8 L 1371.8 1510.5 L 1293.5 1510.5 L 1293.5 1583.8 z M 1214.2 1583.8 L 1292.5 1583.8 L 1292.5 1510.5 L 1214.2 1510.5 L 1214.2 1583.8 z M 1140 1583.8 L 1213.2 1583.8 L 1213.2 1510.5 L 1140 1510.5 L 1140 1583.8 z M 1060.7 1583.8 L 1139 1583.8 L 1139 1510.5 L 1060.7 1510.5 L 1060.7 1583.8 z M 981.4 1583.8 L 1059.7 1583.8 L 1059.7 1510.5 L 981.4000000000001 1510.5 L 981.4000000000001 1583.8 z M 902.1 1583.8 L 980.4 1583.8 L 980.4 1510.5 L 902.1 1510.5 L 902.1 1583.8 z M 827.9 1583.8 L 901.1 1583.8 L 901.1 1510.5 L 827.9 1510.5 L 827.9 1583.8 z M 748.6 1583.8 L 826.9 1583.8 L 826.9 1510.5 L 748.6 1510.5 L 748.6 1583.8 z M 669.3 1583.8 L 747.5999999999999 1583.8 L 747.5999999999999 1510.5 L 669.3 1510.5 L 669.3 1583.8 z M 590 1583.8 L 668.3 1583.8 L 668.3 1510.5 L 590 1510.5 L 590 1583.8 z M 510.8 1583.8 L 589 1583.8 L 589 1510.5 L 510.8 1510.5 L 510.8 1583.8 z M 431.5 1583.8 L 509.8 1583.8 L 509.8 1510.5 L 431.5 1510.5 L 431.5 1583.8 z M 352.2 1583.8 L 430.5 1583.8 L 430.5 1510.5 L 352.2 1510.5 L 352.2 1583.8 z M 273 1583.8 L 351.2 1583.8 L 351.2 1510.5 L 273 1510.5 L 273 1583.8 z M 198.7 1583.8 L 272 1583.8 L 272 1510.5 L 198.7 1510.5 L 198.7 1583.8 z M 119.4 1583.8 L 197.7 1583.8 L 197.7 1510.5 L 119.39999999999999 1510.5 L 119.39999999999999 1583.8 z M 40.1 1583.8 L 118.4 1583.8 L 118.4 1510.5 L 40.1 1510.5 L 40.1 1583.8 z M -39.1 1583.8 L 39.1 1583.8 L 39.1 1510.5 L -39.1 1510.5 L -39.1 1583.8 z M -113.4 1583.8 L -40.10000000000001 1583.8 L -40.10000000000001 1510.5 L -113.4 1510.5 L -113.4 1583.8 z M -192.7 1583.8 L -114.39999999999999 1583.8 L -114.39999999999999 1510.5 L -192.7 1510.5 L -192.7 1583.8 z M -272 1583.8 L -193.7 1583.8 L -193.7 1510.5 L -272 1510.5 L -272 1583.8 z M -351.2 1583.8 L -273 1583.8 L -273 1510.5 L -351.2 1510.5 L -351.2 1583.8 z M -425.5 1583.8 L -352.2 1583.8 L -352.2 1510.5 L -425.5 1510.5 L -425.5 1583.8 z M -504.8 1583.8 L -426.5 1583.8 L -426.5 1510.5 L -504.8 1510.5 L -504.8 1583.8 z M -584 1583.8 L -505.8 1583.8 L -505.8 1510.5 L -584 1510.5 L -584 1583.8 z M -663.3 1583.8 L -585 1583.8 L -585 1510.5 L -663.3 1510.5 L -663.3 1583.8 z M 1684.9 1509.5 L 1763.1000000000001 1509.5 L 1763.1000000000001 1431.3 L 1684.9 1431.3 L 1684.9 1509.5 z M 1605.6 1509.5 L 1683.8999999999999 1509.5 L 1683.8999999999999 1431.3 L 1605.6 1431.3 L 1605.6 1509.5 z M 1526.3 1509.5 L 1604.6 1509.5 L 1604.6 1431.3 L 1526.3 1431.3 L 1526.3 1509.5 z M 1452 1509.5 L 1525.3 1509.5 L 1525.3 1431.3 L 1452 1431.3 L 1452 1509.5 z M 1372.8 1509.5 L 1451 1509.5 L 1451 1431.3 L 1372.8 1431.3 L 1372.8 1509.5 z M 1293.5 1509.5 L 1371.8 1509.5 L 1371.8 1431.3 L 1293.5 1431.3 L 1293.5 1509.5 z M 1214.2 1509.5 L 1292.5 1509.5 L 1292.5 1431.3 L 1214.2 1431.3 L 1214.2 1509.5 z M 1140 1509.5 L 1213.2 1509.5 L 1213.2 1431.3 L 1140 1431.3 L 1140 1509.5 z M 1060.7 1509.5 L 1139 1509.5 L 1139 1431.3 L 1060.7 1431.3 L 1060.7 1509.5 z M 981.4 1509.5 L 1059.7 1509.5 L 1059.7 1431.3 L 981.4000000000001 1431.3 L 981.4000000000001 1509.5 z M 902.1 1509.5 L 980.4 1509.5 L 980.4 1431.3 L 902.1 1431.3 L 902.1 1509.5 z M 827.9 1509.5 L 901.1 1509.5 L 901.1 1431.3 L 827.9 1431.3 L 827.9 1509.5 z M 748.6 1509.5 L 826.9 1509.5 L 826.9 1431.3 L 748.6 1431.3 L 748.6 1509.5 z M 669.3 1509.5 L 747.5999999999999 1509.5 L 747.5999999999999 1431.3 L 669.3 1431.3 L 669.3 1509.5 z M 590 1509.5 L 668.3 1509.5 L 668.3 1431.3 L 590 1431.3 L 590 1509.5 z M 510.8 1509.5 L 589 1509.5 L 589 1431.3 L 510.8 1431.3 L 510.8 1509.5 z M 431.5 1509.5 L 509.8 1509.5 L 509.8 1431.3 L 431.5 1431.3 L 431.5 1509.5 z M 352.2 1509.5 L 430.5 1509.5 L 430.5 1431.3 L 352.2 1431.3 L 352.2 1509.5 z M 273 1509.5 L 351.2 1509.5 L 351.2 1431.3 L 273 1431.3 L 273 1509.5 z M 198.7 1509.5 L 272 1509.5 L 272 1431.3 L 198.7 1431.3 L 198.7 1509.5 z M 119.4 1509.5 L 197.7 1509.5 L 197.7 1431.3 L 119.39999999999999 1431.3 L 119.39999999999999 1509.5 z M 40.1 1509.5 L 118.4 1509.5 L 118.4 1431.3 L 40.1 1431.3 L 40.1 1509.5 z M -39.1 1509.5 L 39.1 1509.5 L 39.1 1431.3 L -39.1 1431.3 L -39.1 1509.5 z M -113.4 1509.5 L -40.10000000000001 1509.5 L -40.10000000000001 1431.3 L -113.4 1431.3 L -113.4 1509.5 z M -192.7 1509.5 L -114.39999999999999 1509.5 L -114.39999999999999 1431.3 L -192.7 1431.3 L -192.7 1509.5 z M -272 1509.5 L -193.7 1509.5 L -193.7 1431.3 L -272 1431.3 L -272 1509.5 z M -351.2 1509.5 L -273 1509.5 L -273 1431.3 L -351.2 1431.3 L -351.2 1509.5 z M -425.5 1509.5 L -352.2 1509.5 L -352.2 1431.3 L -425.5 1431.3 L -425.5 1509.5 z M -504.8 1509.5 L -426.5 1509.5 L -426.5 1431.3 L -504.8 1431.3 L -504.8 1509.5 z M -584 1509.5 L -505.8 1509.5 L -505.8 1431.3 L -584 1431.3 L -584 1509.5 z M -663.3 1509.5 L -585 1509.5 L -585 1431.3 L -663.3 1431.3 L -663.3 1509.5 z M 1684.9 1430.3 L 1763.1000000000001 1430.3 L 1763.1000000000001 1352 L 1684.9 1352 L 1684.9 1430.3 z M 1605.6 1430.3 L 1683.8999999999999 1430.3 L 1683.8999999999999 1352 L 1605.6 1352 L 1605.6 1430.3 z M 1526.3 1430.3 L 1604.6 1430.3 L 1604.6 1352 L 1526.3 1352 L 1526.3 1430.3 z M 1452 1430.3 L 1525.3 1430.3 L 1525.3 1352 L 1452 1352 L 1452 1430.3 z M 1372.8 1430.3 L 1451 1430.3 L 1451 1352 L 1372.8 1352 L 1372.8 1430.3 z M 1293.5 1430.3 L 1371.8 1430.3 L 1371.8 1352 L 1293.5 1352 L 1293.5 1430.3 z M 1214.2 1430.3 L 1292.5 1430.3 L 1292.5 1352 L 1214.2 1352 L 1214.2 1430.3 z M 1140 1430.3 L 1213.2 1430.3 L 1213.2 1352 L 1140 1352 L 1140 1430.3 z M 1060.7 1430.3 L 1139 1430.3 L 1139 1352 L 1060.7 1352 L 1060.7 1430.3 z M 981.4 1430.3 L 1059.7 1430.3 L 1059.7 1352 L 981.4000000000001 1352 L 981.4000000000001 1430.3 z M 902.1 1430.3 L 980.4 1430.3 L 980.4 1352 L 902.1 1352 L 902.1 1430.3 z M 827.9 1430.3 L 901.1 1430.3 L 901.1 1352 L 827.9 1352 L 827.9 1430.3 z M 748.6 1430.3 L 826.9 1430.3 L 826.9 1352 L 748.6 1352 L 748.6 1430.3 z M 669.3 1430.3 L 747.5999999999999 1430.3 L 747.5999999999999 1352 L 669.3 1352 L 669.3 1430.3 z M 590 1430.3 L 668.3 1430.3 L 668.3 1352 L 590 1352 L 590 1430.3 z M 510.8 1430.3 L 589 1430.3 L 589 1352 L 510.8 1352 L 510.8 1430.3 z M 431.5 1430.3 L 509.8 1430.3 L 509.8 1352 L 431.5 1352 L 431.5 1430.3 z M 352.2 1430.3 L 430.5 1430.3 L 430.5 1352 L 352.2 1352 L 352.2 1430.3 z M 273 1430.3 L 351.2 1430.3 L 351.2 1352 L 273 1352 L 273 1430.3 z M 198.7 1430.3 L 272 1430.3 L 272 1352 L 198.7 1352 L 198.7 1430.3 z M 119.4 1430.3 L 197.7 1430.3 L 197.7 1352 L 119.39999999999999 1352 L 119.39999999999999 1430.3 z M 40.1 1430.3 L 118.4 1430.3 L 118.4 1352 L 40.1 1352 L 40.1 1430.3 z M -39.1 1430.3 L 39.1 1430.3 L 39.1 1352 L -39.1 1352 L -39.1 1430.3 z M -113.4 1430.3 L -40.10000000000001 1430.3 L -40.10000000000001 1352 L -113.4 1352 L -113.4 1430.3 z M -192.7 1430.3 L -114.39999999999999 1430.3 L -114.39999999999999 1352 L -192.7 1352 L -192.7 1430.3 z M -272 1430.3 L -193.7 1430.3 L -193.7 1352 L -272 1352 L -272 1430.3 z M -351.2 1430.3 L -273 1430.3 L -273 1352 L -351.2 1352 L -351.2 1430.3 z M -425.5 1430.3 L -352.2 1430.3 L -352.2 1352 L -425.5 1352 L -425.5 1430.3 z M -504.8 1430.3 L -426.5 1430.3 L -426.5 1352 L -504.8 1352 L -504.8 1430.3 z M -584 1430.3 L -505.8 1430.3 L -505.8 1352 L -584 1352 L -584 1430.3 z M -663.3 1430.3 L -585 1430.3 L -585 1352 L -663.3 1352 L -663.3 1430.3 z M 1684.9 1351 L 1763.1000000000001 1351 L 1763.1000000000001 1272.7 L 1684.9 1272.7 L 1684.9 1351 z M 1605.6 1351 L 1683.8999999999999 1351 L 1683.8999999999999 1272.7 L 1605.6 1272.7 L 1605.6 1351 z M 1526.3 1351 L 1604.6 1351 L 1604.6 1272.7 L 1526.3 1272.7 L 1526.3 1351 z M 1452 1351 L 1525.3 1351 L 1525.3 1272.7 L 1452 1272.7 L 1452 1351 z M 1372.8 1351 L 1451 1351 L 1451 1272.7 L 1372.8 1272.7 L 1372.8 1351 z M 1293.5 1351 L 1371.8 1351 L 1371.8 1272.7 L 1293.5 1272.7 L 1293.5 1351 z M 1214.2 1351 L 1292.5 1351 L 1292.5 1272.7 L 1214.2 1272.7 L 1214.2 1351 z M 1140 1351 L 1213.2 1351 L 1213.2 1272.7 L 1140 1272.7 L 1140 1351 z M 1060.7 1351 L 1139 1351 L 1139 1272.7 L 1060.7 1272.7 L 1060.7 1351 z M 981.4 1351 L 1059.7 1351 L 1059.7 1272.7 L 981.4000000000001 1272.7 L 981.4000000000001 1351 z M 902.1 1351 L 980.4 1351 L 980.4 1272.7 L 902.1 1272.7 L 902.1 1351 z M 827.9 1351 L 901.1 1351 L 901.1 1272.7 L 827.9 1272.7 L 827.9 1351 z M 748.6 1351 L 826.9 1351 L 826.9 1272.7 L 748.6 1272.7 L 748.6 1351 z M 669.3 1351 L 747.5999999999999 1351 L 747.5999999999999 1272.7 L 669.3 1272.7 L 669.3 1351 z M 590 1351 L 668.3 1351 L 668.3 1272.7 L 590 1272.7 L 590 1351 z M 510.8 1351 L 589 1351 L 589 1272.7 L 510.8 1272.7 L 510.8 1351 z M 431.5 1351 L 509.8 1351 L 509.8 1272.7 L 431.5 1272.7 L 431.5 1351 z M 352.2 1351 L 430.5 1351 L 430.5 1272.7 L 352.2 1272.7 L 352.2 1351 z M 273 1351 L 351.2 1351 L 351.2 1272.7 L 273 1272.7 L 273 1351 z M 198.7 1351 L 272 1351 L 272 1272.7 L 198.7 1272.7 L 198.7 1351 z M 119.4 1351 L 197.7 1351 L 197.7 1272.7 L 119.39999999999999 1272.7 L 119.39999999999999 1351 z M 40.1 1351 L 118.4 1351 L 118.4 1272.7 L 40.1 1272.7 L 40.1 1351 z M -39.1 1351 L 39.1 1351 L 39.1 1272.7 L -39.1 1272.7 L -39.1 1351 z M -113.4 1351 L -40.10000000000001 1351 L -40.10000000000001 1272.7 L -113.4 1272.7 L -113.4 1351 z M -192.7 1351 L -114.39999999999999 1351 L -114.39999999999999 1272.7 L -192.7 1272.7 L -192.7 1351 z M -272 1351 L -193.7 1351 L -193.7 1272.7 L -272 1272.7 L -272 1351 z M -351.2 1351 L -273 1351 L -273 1272.7 L -351.2 1272.7 L -351.2 1351 z M -425.5 1351 L -352.2 1351 L -352.2 1272.7 L -425.5 1272.7 L -425.5 1351 z M -504.8 1351 L -426.5 1351 L -426.5 1272.7 L -504.8 1272.7 L -504.8 1351 z M -584 1351 L -505.8 1351 L -505.8 1272.7 L -584 1272.7 L -584 1351 z M -663.3 1351 L -585 1351 L -585 1272.7 L -663.3 1272.7 L -663.3 1351 z M 1684.9 1271.7 L 1763.1000000000001 1271.7 L 1763.1000000000001 1198.4 L 1684.9 1198.4 L 1684.9 1271.7 z M 1605.6 1271.7 L 1683.8999999999999 1271.7 L 1683.8999999999999 1198.4 L 1605.6 1198.4 L 1605.6 1271.7 z M 1526.3 1271.7 L 1604.6 1271.7 L 1604.6 1198.4 L 1526.3 1198.4 L 1526.3 1271.7 z M 1452 1271.7 L 1525.3 1271.7 L 1525.3 1198.4 L 1452 1198.4 L 1452 1271.7 z M 1372.8 1271.7 L 1451 1271.7 L 1451 1198.4 L 1372.8 1198.4 L 1372.8 1271.7 z M 1293.5 1271.7 L 1371.8 1271.7 L 1371.8 1198.4 L 1293.5 1198.4 L 1293.5 1271.7 z M 1214.2 1271.7 L 1292.5 1271.7 L 1292.5 1198.4 L 1214.2 1198.4 L 1214.2 1271.7 z M 1140 1271.7 L 1213.2 1271.7 L 1213.2 1198.4 L 1140 1198.4 L 1140 1271.7 z M 1060.7 1271.7 L 1139 1271.7 L 1139 1198.4 L 1060.7 1198.4 L 1060.7 1271.7 z M 981.4 1271.7 L 1059.7 1271.7 L 1059.7 1198.4 L 981.4000000000001 1198.4 L 981.4000000000001 1271.7 z M 902.1 1271.7 L 980.4 1271.7 L 980.4 1198.4 L 902.1 1198.4 L 902.1 1271.7 z M 827.9 1271.7 L 901.1 1271.7 L 901.1 1198.4 L 827.9 1198.4 L 827.9 1271.7 z M 748.6 1271.7 L 826.9 1271.7 L 826.9 1198.4 L 748.6 1198.4 L 748.6 1271.7 z M 669.3 1271.7 L 747.5999999999999 1271.7 L 747.5999999999999 1198.4 L 669.3 1198.4 L 669.3 1271.7 z M 590 1271.7 L 668.3 1271.7 L 668.3 1198.4 L 590 1198.4 L 590 1271.7 z M 510.8 1271.7 L 589 1271.7 L 589 1198.4 L 510.8 1198.4 L 510.8 1271.7 z M 431.5 1271.7 L 509.8 1271.7 L 509.8 1198.4 L 431.5 1198.4 L 431.5 1271.7 z M 352.2 1271.7 L 430.5 1271.7 L 430.5 1198.4 L 352.2 1198.4 L 352.2 1271.7 z M 273 1271.7 L 351.2 1271.7 L 351.2 1198.4 L 273 1198.4 L 273 1271.7 z M 198.7 1271.7 L 272 1271.7 L 272 1198.4 L 198.7 1198.4 L 198.7 1271.7 z M 119.4 1271.7 L 197.7 1271.7 L 197.7 1198.4 L 119.39999999999999 1198.4 L 119.39999999999999 1271.7 z M 40.1 1271.7 L 118.4 1271.7 L 118.4 1198.4 L 40.1 1198.4 L 40.1 1271.7 z M -39.1 1271.7 L 39.1 1271.7 L 39.1 1198.4 L -39.1 1198.4 L -39.1 1271.7 z M -113.4 1271.7 L -40.10000000000001 1271.7 L -40.10000000000001 1198.4 L -113.4 1198.4 L -113.4 1271.7 z M -192.7 1271.7 L -114.39999999999999 1271.7 L -114.39999999999999 1198.4 L -192.7 1198.4 L -192.7 1271.7 z M -272 1271.7 L -193.7 1271.7 L -193.7 1198.4 L -272 1198.4 L -272 1271.7 z M -351.2 1271.7 L -273 1271.7 L -273 1198.4 L -351.2 1198.4 L -351.2 1271.7 z M -425.5 1271.7 L -352.2 1271.7 L -352.2 1198.4 L -425.5 1198.4 L -425.5 1271.7 z M -504.8 1271.7 L -426.5 1271.7 L -426.5 1198.4 L -504.8 1198.4 L -504.8 1271.7 z M -584 1271.7 L -505.8 1271.7 L -505.8 1198.4 L -584 1198.4 L -584 1271.7 z M -663.3 1271.7 L -585 1271.7 L -585 1198.4 L -663.3 1198.4 L -663.3 1271.7 z M 1684.9 1197.4 L 1763.1000000000001 1197.4 L 1763.1000000000001 1119.2 L 1684.9 1119.2 L 1684.9 1197.4 z M 1605.6 1197.4 L 1683.8999999999999 1197.4 L 1683.8999999999999 1119.2 L 1605.6 1119.2 L 1605.6 1197.4 z M 1526.3 1197.4 L 1604.6 1197.4 L 1604.6 1119.2 L 1526.3 1119.2 L 1526.3 1197.4 z M 1452 1197.4 L 1525.3 1197.4 L 1525.3 1119.2 L 1452 1119.2 L 1452 1197.4 z M 1372.8 1197.4 L 1451 1197.4 L 1451 1119.2 L 1372.8 1119.2 L 1372.8 1197.4 z M 1293.5 1197.4 L 1371.8 1197.4 L 1371.8 1119.2 L 1293.5 1119.2 L 1293.5 1197.4 z M 1214.2 1197.4 L 1292.5 1197.4 L 1292.5 1119.2 L 1214.2 1119.2 L 1214.2 1197.4 z M 1140 1197.4 L 1213.2 1197.4 L 1213.2 1119.2 L 1140 1119.2 L 1140 1197.4 z M 1060.7 1197.4 L 1139 1197.4 L 1139 1119.2 L 1060.7 1119.2 L 1060.7 1197.4 z M 981.4 1197.4 L 1059.7 1197.4 L 1059.7 1119.2 L 981.4000000000001 1119.2 L 981.4000000000001 1197.4 z M 902.1 1197.4 L 980.4 1197.4 L 980.4 1119.2 L 902.1 1119.2 L 902.1 1197.4 z M 827.9 1197.4 L 901.1 1197.4 L 901.1 1119.2 L 827.9 1119.2 L 827.9 1197.4 z M 748.6 1197.4 L 826.9 1197.4 L 826.9 1119.2 L 748.6 1119.2 L 748.6 1197.4 z M 669.3 1197.4 L 747.5999999999999 1197.4 L 747.5999999999999 1119.2 L 669.3 1119.2 L 669.3 1197.4 z M 590 1197.4 L 668.3 1197.4 L 668.3 1119.2 L 590 1119.2 L 590 1197.4 z M 510.8 1197.4 L 589 1197.4 L 589 1119.2 L 510.8 1119.2 L 510.8 1197.4 z M 431.5 1197.4 L 509.8 1197.4 L 509.8 1119.2 L 431.5 1119.2 L 431.5 1197.4 z M 352.2 1197.4 L 430.5 1197.4 L 430.5 1119.2 L 352.2 1119.2 L 352.2 1197.4 z M 273 1197.4 L 351.2 1197.4 L 351.2 1119.2 L 273 1119.2 L 273 1197.4 z M 198.7 1197.4 L 272 1197.4 L 272 1119.2 L 198.7 1119.2 L 198.7 1197.4 z M 119.4 1197.4 L 197.7 1197.4 L 197.7 1119.2 L 119.39999999999999 1119.2 L 119.39999999999999 1197.4 z M 40.1 1197.4 L 118.4 1197.4 L 118.4 1119.2 L 40.1 1119.2 L 40.1 1197.4 z M -39.1 1197.4 L 39.1 1197.4 L 39.1 1119.2 L -39.1 1119.2 L -39.1 1197.4 z M -113.4 1197.4 L -40.10000000000001 1197.4 L -40.10000000000001 1119.2 L -113.4 1119.2 L -113.4 1197.4 z M -192.7 1197.4 L -114.39999999999999 1197.4 L -114.39999999999999 1119.2 L -192.7 1119.2 L -192.7 1197.4 z M -272 1197.4 L -193.7 1197.4 L -193.7 1119.2 L -272 1119.2 L -272 1197.4 z M -351.2 1197.4 L -273 1197.4 L -273 1119.2 L -351.2 1119.2 L -351.2 1197.4 z M -425.5 1197.4 L -352.2 1197.4 L -352.2 1119.2 L -425.5 1119.2 L -425.5 1197.4 z M -504.8 1197.4 L -426.5 1197.4 L -426.5 1119.2 L -504.8 1119.2 L -504.8 1197.4 z M -584 1197.4 L -505.8 1197.4 L -505.8 1119.2 L -584 1119.2 L -584 1197.4 z M -663.3 1197.4 L -585 1197.4 L -585 1119.2 L -663.3 1119.2 L -663.3 1197.4 z M 1684.9 1118.2 L 1763.1000000000001 1118.2 L 1763.1000000000001 1039.9 L 1684.9 1039.9 L 1684.9 1118.2 z M 1605.6 1118.2 L 1683.8999999999999 1118.2 L 1683.8999999999999 1039.9 L 1605.6 1039.9 L 1605.6 1118.2 z M 1526.3 1118.2 L 1604.6 1118.2 L 1604.6 1039.9 L 1526.3 1039.9 L 1526.3 1118.2 z M 1452 1118.2 L 1525.3 1118.2 L 1525.3 1039.9 L 1452 1039.9 L 1452 1118.2 z M 1372.8 1118.2 L 1451 1118.2 L 1451 1039.9 L 1372.8 1039.9 L 1372.8 1118.2 z M 1293.5 1118.2 L 1371.8 1118.2 L 1371.8 1039.9 L 1293.5 1039.9 L 1293.5 1118.2 z M 1214.2 1118.2 L 1292.5 1118.2 L 1292.5 1039.9 L 1214.2 1039.9 L 1214.2 1118.2 z M 1140 1118.2 L 1213.2 1118.2 L 1213.2 1039.9 L 1140 1039.9 L 1140 1118.2 z M 1060.7 1118.2 L 1139 1118.2 L 1139 1039.9 L 1060.7 1039.9 L 1060.7 1118.2 z M 981.4 1118.2 L 1059.7 1118.2 L 1059.7 1039.9 L 981.4000000000001 1039.9 L 981.4000000000001 1118.2 z M 902.1 1118.2 L 980.4 1118.2 L 980.4 1039.9 L 902.1 1039.9 L 902.1 1118.2 z M 827.9 1118.2 L 901.1 1118.2 L 901.1 1039.9 L 827.9 1039.9 L 827.9 1118.2 z M 748.6 1118.2 L 826.9 1118.2 L 826.9 1039.9 L 748.6 1039.9 L 748.6 1118.2 z M 669.3 1118.2 L 747.5999999999999 1118.2 L 747.5999999999999 1039.9 L 669.3 1039.9 L 669.3 1118.2 z M 590 1118.2 L 668.3 1118.2 L 668.3 1039.9 L 590 1039.9 L 590 1118.2 z M 510.8 1118.2 L 589 1118.2 L 589 1039.9 L 510.8 1039.9 L 510.8 1118.2 z M 431.5 1118.2 L 509.8 1118.2 L 509.8 1039.9 L 431.5 1039.9 L 431.5 1118.2 z M 352.2 1118.2 L 430.5 1118.2 L 430.5 1039.9 L 352.2 1039.9 L 352.2 1118.2 z M 273 1118.2 L 351.2 1118.2 L 351.2 1039.9 L 273 1039.9 L 273 1118.2 z M 198.7 1118.2 L 272 1118.2 L 272 1039.9 L 198.7 1039.9 L 198.7 1118.2 z M 119.4 1118.2 L 197.7 1118.2 L 197.7 1039.9 L 119.39999999999999 1039.9 L 119.39999999999999 1118.2 z M 40.1 1118.2 L 118.4 1118.2 L 118.4 1039.9 L 40.1 1039.9 L 40.1 1118.2 z M -39.1 1118.2 L 39.1 1118.2 L 39.1 1039.9 L -39.1 1039.9 L -39.1 1118.2 z M -113.4 1118.2 L -40.10000000000001 1118.2 L -40.10000000000001 1039.9 L -113.4 1039.9 L -113.4 1118.2 z M -192.7 1118.2 L -114.39999999999999 1118.2 L -114.39999999999999 1039.9 L -192.7 1039.9 L -192.7 1118.2 z M -272 1118.2 L -193.7 1118.2 L -193.7 1039.9 L -272 1039.9 L -272 1118.2 z M -351.2 1118.2 L -273 1118.2 L -273 1039.9 L -351.2 1039.9 L -351.2 1118.2 z M -425.5 1118.2 L -352.2 1118.2 L -352.2 1039.9 L -425.5 1039.9 L -425.5 1118.2 z M -504.8 1118.2 L -426.5 1118.2 L -426.5 1039.9 L -504.8 1039.9 L -504.8 1118.2 z M -584 1118.2 L -505.8 1118.2 L -505.8 1039.9 L -584 1039.9 L -584 1118.2 z M -663.3 1118.2 L -585 1118.2 L -585 1039.9 L -663.3 1039.9 L -663.3 1118.2 z M 1684.9 1038.9 L 1763.1000000000001 1038.9 L 1763.1000000000001 960.6000000000001 L 1684.9 960.6000000000001 L 1684.9 1038.9 z M 1605.6 1038.9 L 1683.8999999999999 1038.9 L 1683.8999999999999 960.6000000000001 L 1605.6 960.6000000000001 L 1605.6 1038.9 z M 1526.3 1038.9 L 1604.6 1038.9 L 1604.6 960.6000000000001 L 1526.3 960.6000000000001 L 1526.3 1038.9 z M 1452 1038.9 L 1525.3 1038.9 L 1525.3 960.6000000000001 L 1452 960.6000000000001 L 1452 1038.9 z M 1372.8 1038.9 L 1451 1038.9 L 1451 960.6000000000001 L 1372.8 960.6000000000001 L 1372.8 1038.9 z M 1293.5 1038.9 L 1371.8 1038.9 L 1371.8 960.6000000000001 L 1293.5 960.6000000000001 L 1293.5 1038.9 z M 1214.2 1038.9 L 1292.5 1038.9 L 1292.5 960.6000000000001 L 1214.2 960.6000000000001 L 1214.2 1038.9 z M 1140 1038.9 L 1213.2 1038.9 L 1213.2 960.6000000000001 L 1140 960.6000000000001 L 1140 1038.9 z M 1060.7 1038.9 L 1139 1038.9 L 1139 960.6000000000001 L 1060.7 960.6000000000001 L 1060.7 1038.9 z M 981.4 1038.9 L 1059.7 1038.9 L 1059.7 960.6000000000001 L 981.4000000000001 960.6000000000001 L 981.4000000000001 1038.9 z M 902.1 1038.9 L 980.4 1038.9 L 980.4 960.6000000000001 L 902.1 960.6000000000001 L 902.1 1038.9 z M 827.9 1038.9 L 901.1 1038.9 L 901.1 960.6000000000001 L 827.9 960.6000000000001 L 827.9 1038.9 z M 748.6 1038.9 L 826.9 1038.9 L 826.9 960.6000000000001 L 748.6 960.6000000000001 L 748.6 1038.9 z M 669.3 1038.9 L 747.5999999999999 1038.9 L 747.5999999999999 960.6000000000001 L 669.3 960.6000000000001 L 669.3 1038.9 z M 590 1038.9 L 668.3 1038.9 L 668.3 960.6000000000001 L 590 960.6000000000001 L 590 1038.9 z M 510.8 1038.9 L 589 1038.9 L 589 960.6000000000001 L 510.8 960.6000000000001 L 510.8 1038.9 z M 431.5 1038.9 L 509.8 1038.9 L 509.8 960.6000000000001 L 431.5 960.6000000000001 L 431.5 1038.9 z M 352.2 1038.9 L 430.5 1038.9 L 430.5 960.6000000000001 L 352.2 960.6000000000001 L 352.2 1038.9 z M 273 1038.9 L 351.2 1038.9 L 351.2 960.6000000000001 L 273 960.6000000000001 L 273 1038.9 z M 198.7 1038.9 L 272 1038.9 L 272 960.6000000000001 L 198.7 960.6000000000001 L 198.7 1038.9 z M 119.4 1038.9 L 197.7 1038.9 L 197.7 960.6000000000001 L 119.39999999999999 960.6000000000001 L 119.39999999999999 1038.9 z M 40.1 1038.9 L 118.4 1038.9 L 118.4 960.6000000000001 L 40.1 960.6000000000001 L 40.1 1038.9 z M -39.1 1038.9 L 39.1 1038.9 L 39.1 960.6000000000001 L -39.1 960.6000000000001 L -39.1 1038.9 z M -113.4 1038.9 L -40.10000000000001 1038.9 L -40.10000000000001 960.6000000000001 L -113.4 960.6000000000001 L -113.4 1038.9 z M -192.7 1038.9 L -114.39999999999999 1038.9 L -114.39999999999999 960.6000000000001 L -192.7 960.6000000000001 L -192.7 1038.9 z M -272 1038.9 L -193.7 1038.9 L -193.7 960.6000000000001 L -272 960.6000000000001 L -272 1038.9 z M -351.2 1038.9 L -273 1038.9 L -273 960.6000000000001 L -351.2 960.6000000000001 L -351.2 1038.9 z M -425.5 1038.9 L -352.2 1038.9 L -352.2 960.6000000000001 L -425.5 960.6000000000001 L -425.5 1038.9 z M -504.8 1038.9 L -426.5 1038.9 L -426.5 960.6000000000001 L -504.8 960.6000000000001 L -504.8 1038.9 z M -584 1038.9 L -505.8 1038.9 L -505.8 960.6000000000001 L -584 960.6000000000001 L -584 1038.9 z M -663.3 1038.9 L -585 1038.9 L -585 960.6000000000001 L -663.3 960.6000000000001 L -663.3 1038.9 z M 1684.9 959.6 L 1763.1000000000001 959.6 L 1763.1000000000001 886.4 L 1684.9 886.4 L 1684.9 959.6 z M 1605.6 959.6 L 1683.8999999999999 959.6 L 1683.8999999999999 886.4 L 1605.6 886.4 L 1605.6 959.6 z M 1526.3 959.6 L 1604.6 959.6 L 1604.6 886.4 L 1526.3 886.4 L 1526.3 959.6 z M 1452 959.6 L 1525.3 959.6 L 1525.3 886.4 L 1452 886.4 L 1452 959.6 z M 1372.8 959.6 L 1451 959.6 L 1451 886.4 L 1372.8 886.4 L 1372.8 959.6 z M 1293.5 959.6 L 1371.8 959.6 L 1371.8 886.4 L 1293.5 886.4 L 1293.5 959.6 z M 1214.2 959.6 L 1292.5 959.6 L 1292.5 886.4 L 1214.2 886.4 L 1214.2 959.6 z M 1140 959.6 L 1213.2 959.6 L 1213.2 886.4 L 1140 886.4 L 1140 959.6 z M 1060.7 959.6 L 1139 959.6 L 1139 886.4 L 1060.7 886.4 L 1060.7 959.6 z M 981.4 959.6 L 1059.7 959.6 L 1059.7 886.4 L 981.4000000000001 886.4 L 981.4000000000001 959.6 z M 902.1 959.6 L 980.4 959.6 L 980.4 886.4 L 902.1 886.4 L 902.1 959.6 z M 827.9 959.6 L 901.1 959.6 L 901.1 886.4 L 827.9 886.4 L 827.9 959.6 z M 748.6 959.6 L 826.9 959.6 L 826.9 886.4 L 748.6 886.4 L 748.6 959.6 z M 669.3 959.6 L 747.5999999999999 959.6 L 747.5999999999999 886.4 L 669.3 886.4 L 669.3 959.6 z M 590 959.6 L 668.3 959.6 L 668.3 886.4 L 590 886.4 L 590 959.6 z M 510.8 959.6 L 589 959.6 L 589 886.4 L 510.8 886.4 L 510.8 959.6 z M 431.5 959.6 L 509.8 959.6 L 509.8 886.4 L 431.5 886.4 L 431.5 959.6 z M 352.2 959.6 L 430.5 959.6 L 430.5 886.4 L 352.2 886.4 L 352.2 959.6 z M 273 959.6 L 351.2 959.6 L 351.2 886.4 L 273 886.4 L 273 959.6 z M 198.7 959.6 L 272 959.6 L 272 886.4 L 198.7 886.4 L 198.7 959.6 z M 119.4 959.6 L 197.7 959.6 L 197.7 886.4 L 119.39999999999999 886.4 L 119.39999999999999 959.6 z M 40.1 959.6 L 118.4 959.6 L 118.4 886.4 L 40.1 886.4 L 40.1 959.6 z M -39.1 959.6 L 39.1 959.6 L 39.1 886.4 L -39.1 886.4 L -39.1 959.6 z M -113.4 959.6 L -40.10000000000001 959.6 L -40.10000000000001 886.4 L -113.4 886.4 L -113.4 959.6 z M -192.7 959.6 L -114.39999999999999 959.6 L -114.39999999999999 886.4 L -192.7 886.4 L -192.7 959.6 z M -272 959.6 L -193.7 959.6 L -193.7 886.4 L -272 886.4 L -272 959.6 z M -351.2 959.6 L -273 959.6 L -273 886.4 L -351.2 886.4 L -351.2 959.6 z M -425.5 959.6 L -352.2 959.6 L -352.2 886.4 L -425.5 886.4 L -425.5 959.6 z M -504.8 959.6 L -426.5 959.6 L -426.5 886.4 L -504.8 886.4 L -504.8 959.6 z M -584 959.6 L -505.8 959.6 L -505.8 886.4 L -584 886.4 L -584 959.6 z M -663.3 959.6 L -585 959.6 L -585 886.4 L -663.3 886.4 L -663.3 959.6 z M 1684.9 885.4 L 1763.1000000000001 885.4 L 1763.1000000000001 807.1 L 1684.9 807.1 L 1684.9 885.4 z M 1605.6 885.4 L 1683.8999999999999 885.4 L 1683.8999999999999 807.1 L 1605.6 807.1 L 1605.6 885.4 z M 1526.3 885.4 L 1604.6 885.4 L 1604.6 807.1 L 1526.3 807.1 L 1526.3 885.4 z M 1452 885.4 L 1525.3 885.4 L 1525.3 807.1 L 1452 807.1 L 1452 885.4 z M 1372.8 885.4 L 1451 885.4 L 1451 807.1 L 1372.8 807.1 L 1372.8 885.4 z M 1293.5 885.4 L 1371.8 885.4 L 1371.8 807.1 L 1293.5 807.1 L 1293.5 885.4 z M 1214.2 885.4 L 1292.5 885.4 L 1292.5 807.1 L 1214.2 807.1 L 1214.2 885.4 z M 1140 885.4 L 1213.2 885.4 L 1213.2 807.1 L 1140 807.1 L 1140 885.4 z M 1060.7 885.4 L 1139 885.4 L 1139 807.1 L 1060.7 807.1 L 1060.7 885.4 z M 981.4 885.4 L 1059.7 885.4 L 1059.7 807.1 L 981.4000000000001 807.1 L 981.4000000000001 885.4 z M 902.1 885.4 L 980.4 885.4 L 980.4 807.1 L 902.1 807.1 L 902.1 885.4 z M 827.9 885.4 L 901.1 885.4 L 901.1 807.1 L 827.9 807.1 L 827.9 885.4 z M 748.6 885.4 L 826.9 885.4 L 826.9 807.1 L 748.6 807.1 L 748.6 885.4 z M 669.3 885.4 L 747.5999999999999 885.4 L 747.5999999999999 807.1 L 669.3 807.1 L 669.3 885.4 z M 590 885.4 L 668.3 885.4 L 668.3 807.1 L 590 807.1 L 590 885.4 z M 510.8 885.4 L 589 885.4 L 589 807.1 L 510.8 807.1 L 510.8 885.4 z M 431.5 885.4 L 509.8 885.4 L 509.8 807.1 L 431.5 807.1 L 431.5 885.4 z M 352.2 885.4 L 430.5 885.4 L 430.5 807.1 L 352.2 807.1 L 352.2 885.4 z M 273 885.4 L 351.2 885.4 L 351.2 807.1 L 273 807.1 L 273 885.4 z M 198.7 885.4 L 272 885.4 L 272 807.1 L 198.7 807.1 L 198.7 885.4 z M 119.4 885.4 L 197.7 885.4 L 197.7 807.1 L 119.39999999999999 807.1 L 119.39999999999999 885.4 z M 40.1 885.4 L 118.4 885.4 L 118.4 807.1 L 40.1 807.1 L 40.1 885.4 z M -39.1 885.4 L 39.1 885.4 L 39.1 807.1 L -39.1 807.1 L -39.1 885.4 z M -113.4 885.4 L -40.10000000000001 885.4 L -40.10000000000001 807.1 L -113.4 807.1 L -113.4 885.4 z M -192.7 885.4 L -114.39999999999999 885.4 L -114.39999999999999 807.1 L -192.7 807.1 L -192.7 885.4 z M -272 885.4 L -193.7 885.4 L -193.7 807.1 L -272 807.1 L -272 885.4 z M -351.2 885.4 L -273 885.4 L -273 807.1 L -351.2 807.1 L -351.2 885.4 z M -425.5 885.4 L -352.2 885.4 L -352.2 807.1 L -425.5 807.1 L -425.5 885.4 z M -504.8 885.4 L -426.5 885.4 L -426.5 807.1 L -504.8 807.1 L -504.8 885.4 z M -584 885.4 L -505.8 885.4 L -505.8 807.1 L -584 807.1 L -584 885.4 z M -663.3 885.4 L -585 885.4 L -585 807.1 L -663.3 807.1 L -663.3 885.4 z M 1684.9 806.1 L 1763.1000000000001 806.1 L 1763.1000000000001 727.8000000000001 L 1684.9 727.8000000000001 L 1684.9 806.1 z M 1605.6 806.1 L 1683.8999999999999 806.1 L 1683.8999999999999 727.8000000000001 L 1605.6 727.8000000000001 L 1605.6 806.1 z M 1526.3 806.1 L 1604.6 806.1 L 1604.6 727.8000000000001 L 1526.3 727.8000000000001 L 1526.3 806.1 z M 1452 806.1 L 1525.3 806.1 L 1525.3 727.8000000000001 L 1452 727.8000000000001 L 1452 806.1 z M 1372.8 806.1 L 1451 806.1 L 1451 727.8000000000001 L 1372.8 727.8000000000001 L 1372.8 806.1 z M 1293.5 806.1 L 1371.8 806.1 L 1371.8 727.8000000000001 L 1293.5 727.8000000000001 L 1293.5 806.1 z M 1214.2 806.1 L 1292.5 806.1 L 1292.5 727.8000000000001 L 1214.2 727.8000000000001 L 1214.2 806.1 z M 1140 806.1 L 1213.2 806.1 L 1213.2 727.8000000000001 L 1140 727.8000000000001 L 1140 806.1 z M 1060.7 806.1 L 1139 806.1 L 1139 727.8000000000001 L 1060.7 727.8000000000001 L 1060.7 806.1 z M 981.4 806.1 L 1059.7 806.1 L 1059.7 727.8000000000001 L 981.4000000000001 727.8000000000001 L 981.4000000000001 806.1 z M 902.1 806.1 L 980.4 806.1 L 980.4 727.8000000000001 L 902.1 727.8000000000001 L 902.1 806.1 z M 827.9 806.1 L 901.1 806.1 L 901.1 727.8000000000001 L 827.9 727.8000000000001 L 827.9 806.1 z M 748.6 806.1 L 826.9 806.1 L 826.9 727.8000000000001 L 748.6 727.8000000000001 L 748.6 806.1 z M 669.3 806.1 L 747.5999999999999 806.1 L 747.5999999999999 727.8000000000001 L 669.3 727.8000000000001 L 669.3 806.1 z M 590 806.1 L 668.3 806.1 L 668.3 727.8000000000001 L 590 727.8000000000001 L 590 806.1 z M 510.8 806.1 L 589 806.1 L 589 727.8000000000001 L 510.8 727.8000000000001 L 510.8 806.1 z M 431.5 806.1 L 509.8 806.1 L 509.8 727.8000000000001 L 431.5 727.8000000000001 L 431.5 806.1 z M 352.2 806.1 L 430.5 806.1 L 430.5 727.8000000000001 L 352.2 727.8000000000001 L 352.2 806.1 z M 273 806.1 L 351.2 806.1 L 351.2 727.8000000000001 L 273 727.8000000000001 L 273 806.1 z M 198.7 806.1 L 272 806.1 L 272 727.8000000000001 L 198.7 727.8000000000001 L 198.7 806.1 z M 119.4 806.1 L 197.7 806.1 L 197.7 727.8000000000001 L 119.39999999999999 727.8000000000001 L 119.39999999999999 806.1 z M 40.1 806.1 L 118.4 806.1 L 118.4 727.8000000000001 L 40.1 727.8000000000001 L 40.1 806.1 z M -39.1 806.1 L 39.1 806.1 L 39.1 727.8000000000001 L -39.1 727.8000000000001 L -39.1 806.1 z M -113.4 806.1 L -40.10000000000001 806.1 L -40.10000000000001 727.8000000000001 L -113.4 727.8000000000001 L -113.4 806.1 z M -192.7 806.1 L -114.39999999999999 806.1 L -114.39999999999999 727.8000000000001 L -192.7 727.8000000000001 L -192.7 806.1 z M -272 806.1 L -193.7 806.1 L -193.7 727.8000000000001 L -272 727.8000000000001 L -272 806.1 z M -351.2 806.1 L -273 806.1 L -273 727.8000000000001 L -351.2 727.8000000000001 L -351.2 806.1 z M -425.5 806.1 L -352.2 806.1 L -352.2 727.8000000000001 L -425.5 727.8000000000001 L -425.5 806.1 z M -504.8 806.1 L -426.5 806.1 L -426.5 727.8000000000001 L -504.8 727.8000000000001 L -504.8 806.1 z M -584 806.1 L -505.8 806.1 L -505.8 727.8000000000001 L -584 727.8000000000001 L -584 806.1 z M -663.3 806.1 L -585 806.1 L -585 727.8000000000001 L -663.3 727.8000000000001 L -663.3 806.1 z M 1684.9 726.8 L 1763.1000000000001 726.8 L 1763.1000000000001 648.5 L 1684.9 648.5 L 1684.9 726.8 z M 1605.6 726.8 L 1683.8999999999999 726.8 L 1683.8999999999999 648.5 L 1605.6 648.5 L 1605.6 726.8 z M 1526.3 726.8 L 1604.6 726.8 L 1604.6 648.5 L 1526.3 648.5 L 1526.3 726.8 z M 1452 726.8 L 1525.3 726.8 L 1525.3 648.5 L 1452 648.5 L 1452 726.8 z M 1372.8 726.8 L 1451 726.8 L 1451 648.5 L 1372.8 648.5 L 1372.8 726.8 z M 1293.5 726.8 L 1371.8 726.8 L 1371.8 648.5 L 1293.5 648.5 L 1293.5 726.8 z M 1214.2 726.8 L 1292.5 726.8 L 1292.5 648.5 L 1214.2 648.5 L 1214.2 726.8 z M 1140 726.8 L 1213.2 726.8 L 1213.2 648.5 L 1140 648.5 L 1140 726.8 z M 1060.7 726.8 L 1139 726.8 L 1139 648.5 L 1060.7 648.5 L 1060.7 726.8 z M 981.4 726.8 L 1059.7 726.8 L 1059.7 648.5 L 981.4000000000001 648.5 L 981.4000000000001 726.8 z M 902.1 726.8 L 980.4 726.8 L 980.4 648.5 L 902.1 648.5 L 902.1 726.8 z M 827.9 726.8 L 901.1 726.8 L 901.1 648.5 L 827.9 648.5 L 827.9 726.8 z M 748.6 726.8 L 826.9 726.8 L 826.9 648.5 L 748.6 648.5 L 748.6 726.8 z M 669.3 726.8 L 747.5999999999999 726.8 L 747.5999999999999 648.5 L 669.3 648.5 L 669.3 726.8 z M 590 726.8 L 668.3 726.8 L 668.3 648.5 L 590 648.5 L 590 726.8 z M 510.8 726.8 L 589 726.8 L 589 648.5 L 510.8 648.5 L 510.8 726.8 z M 431.5 726.8 L 509.8 726.8 L 509.8 648.5 L 431.5 648.5 L 431.5 726.8 z M 352.2 726.8 L 430.5 726.8 L 430.5 648.5 L 352.2 648.5 L 352.2 726.8 z M 273 726.8 L 351.2 726.8 L 351.2 648.5 L 273 648.5 L 273 726.8 z M 198.7 726.8 L 272 726.8 L 272 648.5 L 198.7 648.5 L 198.7 726.8 z M 119.4 726.8 L 197.7 726.8 L 197.7 648.5 L 119.39999999999999 648.5 L 119.39999999999999 726.8 z M 40.1 726.8 L 118.4 726.8 L 118.4 648.5 L 40.1 648.5 L 40.1 726.8 z M -39.1 726.8 L 39.1 726.8 L 39.1 648.5 L -39.1 648.5 L -39.1 726.8 z M -113.4 726.8 L -40.10000000000001 726.8 L -40.10000000000001 648.5 L -113.4 648.5 L -113.4 726.8 z M -192.7 726.8 L -114.39999999999999 726.8 L -114.39999999999999 648.5 L -192.7 648.5 L -192.7 726.8 z M -272 726.8 L -193.7 726.8 L -193.7 648.5 L -272 648.5 L -272 726.8 z M -351.2 726.8 L -273 726.8 L -273 648.5 L -351.2 648.5 L -351.2 726.8 z M -425.5 726.8 L -352.2 726.8 L -352.2 648.5 L -425.5 648.5 L -425.5 726.8 z M -504.8 726.8 L -426.5 726.8 L -426.5 648.5 L -504.8 648.5 L -504.8 726.8 z M -584 726.8 L -505.8 726.8 L -505.8 648.5 L -584 648.5 L -584 726.8 z M -663.3 726.8 L -585 726.8 L -585 648.5 L -663.3 648.5 L -663.3 726.8 z M 1684.9 647.5 L 1763.1000000000001 647.5 L 1763.1000000000001 569.3 L 1684.9 569.3 L 1684.9 647.5 z M 1605.6 647.5 L 1683.8999999999999 647.5 L 1683.8999999999999 569.3 L 1605.6 569.3 L 1605.6 647.5 z M 1526.3 647.5 L 1604.6 647.5 L 1604.6 569.3 L 1526.3 569.3 L 1526.3 647.5 z M 1452 647.5 L 1525.3 647.5 L 1525.3 569.3 L 1452 569.3 L 1452 647.5 z M 1372.8 647.5 L 1451 647.5 L 1451 569.3 L 1372.8 569.3 L 1372.8 647.5 z M 1293.5 647.5 L 1371.8 647.5 L 1371.8 569.3 L 1293.5 569.3 L 1293.5 647.5 z M 1214.2 647.5 L 1292.5 647.5 L 1292.5 569.3 L 1214.2 569.3 L 1214.2 647.5 z M 1140 647.5 L 1213.2 647.5 L 1213.2 569.3 L 1140 569.3 L 1140 647.5 z M 1060.7 647.5 L 1139 647.5 L 1139 569.3 L 1060.7 569.3 L 1060.7 647.5 z M 981.4 647.5 L 1059.7 647.5 L 1059.7 569.3 L 981.4000000000001 569.3 L 981.4000000000001 647.5 z M 902.1 647.5 L 980.4 647.5 L 980.4 569.3 L 902.1 569.3 L 902.1 647.5 z M 827.9 647.5 L 901.1 647.5 L 901.1 569.3 L 827.9 569.3 L 827.9 647.5 z M 748.6 647.5 L 826.9 647.5 L 826.9 569.3 L 748.6 569.3 L 748.6 647.5 z M 669.3 647.5 L 747.5999999999999 647.5 L 747.5999999999999 569.3 L 669.3 569.3 L 669.3 647.5 z M 590 647.5 L 668.3 647.5 L 668.3 569.3 L 590 569.3 L 590 647.5 z M 510.8 647.5 L 589 647.5 L 589 569.3 L 510.8 569.3 L 510.8 647.5 z M 431.5 647.5 L 509.8 647.5 L 509.8 569.3 L 431.5 569.3 L 431.5 647.5 z M 352.2 647.5 L 430.5 647.5 L 430.5 569.3 L 352.2 569.3 L 352.2 647.5 z M 273 647.5 L 351.2 647.5 L 351.2 569.3 L 273 569.3 L 273 647.5 z M 198.7 647.5 L 272 647.5 L 272 569.3 L 198.7 569.3 L 198.7 647.5 z M 119.4 647.5 L 197.7 647.5 L 197.7 569.3 L 119.39999999999999 569.3 L 119.39999999999999 647.5 z M 40.1 647.5 L 118.4 647.5 L 118.4 569.3 L 40.1 569.3 L 40.1 647.5 z M -39.1 647.5 L 39.1 647.5 L 39.1 569.3 L -39.1 569.3 L -39.1 647.5 z M -113.4 647.5 L -40.10000000000001 647.5 L -40.10000000000001 569.3 L -113.4 569.3 L -113.4 647.5 z M -192.7 647.5 L -114.39999999999999 647.5 L -114.39999999999999 569.3 L -192.7 569.3 L -192.7 647.5 z M -272 647.5 L -193.7 647.5 L -193.7 569.3 L -272 569.3 L -272 647.5 z M -351.2 647.5 L -273 647.5 L -273 569.3 L -351.2 569.3 L -351.2 647.5 z M -425.5 647.5 L -352.2 647.5 L -352.2 569.3 L -425.5 569.3 L -425.5 647.5 z M -504.8 647.5 L -426.5 647.5 L -426.5 569.3 L -504.8 569.3 L -504.8 647.5 z M -584 647.5 L -505.8 647.5 L -505.8 569.3 L -584 569.3 L -584 647.5 z M -663.3 647.5 L -585 647.5 L -585 569.3 L -663.3 569.3 L -663.3 647.5 z M 1684.9 568.3 L 1763.1000000000001 568.3 L 1763.1000000000001 490 L 1684.9 490 L 1684.9 568.3 z M 1605.6 568.3 L 1683.8999999999999 568.3 L 1683.8999999999999 490 L 1605.6 490 L 1605.6 568.3 z M 1526.3 568.3 L 1604.6 568.3 L 1604.6 490 L 1526.3 490 L 1526.3 568.3 z M 1452 568.3 L 1525.3 568.3 L 1525.3 490 L 1452 490 L 1452 568.3 z M 1372.8 568.3 L 1451 568.3 L 1451 490 L 1372.8 490 L 1372.8 568.3 z M 1293.5 568.3 L 1371.8 568.3 L 1371.8 490 L 1293.5 490 L 1293.5 568.3 z M 1214.2 568.3 L 1292.5 568.3 L 1292.5 490 L 1214.2 490 L 1214.2 568.3 z M 1140 568.3 L 1213.2 568.3 L 1213.2 490 L 1140 490 L 1140 568.3 z M 1060.7 568.3 L 1139 568.3 L 1139 490 L 1060.7 490 L 1060.7 568.3 z M 981.4 568.3 L 1059.7 568.3 L 1059.7 490 L 981.4000000000001 490 L 981.4000000000001 568.3 z M 902.1 568.3 L 980.4 568.3 L 980.4 490 L 902.1 490 L 902.1 568.3 z M 827.9 568.3 L 901.1 568.3 L 901.1 490 L 827.9 490 L 827.9 568.3 z M 748.6 568.3 L 826.9 568.3 L 826.9 490 L 748.6 490 L 748.6 568.3 z M 669.3 568.3 L 747.5999999999999 568.3 L 747.5999999999999 490 L 669.3 490 L 669.3 568.3 z M 590 568.3 L 668.3 568.3 L 668.3 490 L 590 490 L 590 568.3 z M 510.8 568.3 L 589 568.3 L 589 490 L 510.8 490 L 510.8 568.3 z M 431.5 568.3 L 509.8 568.3 L 509.8 490 L 431.5 490 L 431.5 568.3 z M 352.2 568.3 L 430.5 568.3 L 430.5 490 L 352.2 490 L 352.2 568.3 z M 273 568.3 L 351.2 568.3 L 351.2 490 L 273 490 L 273 568.3 z M 198.7 568.3 L 272 568.3 L 272 490 L 198.7 490 L 198.7 568.3 z M 119.4 568.3 L 197.7 568.3 L 197.7 490 L 119.39999999999999 490 L 119.39999999999999 568.3 z M 40.1 568.3 L 118.4 568.3 L 118.4 490 L 40.1 490 L 40.1 568.3 z M -39.1 568.3 L 39.1 568.3 L 39.1 490 L -39.1 490 L -39.1 568.3 z M -113.4 568.3 L -40.10000000000001 568.3 L -40.10000000000001 490 L -113.4 490 L -113.4 568.3 z M -192.7 568.3 L -114.39999999999999 568.3 L -114.39999999999999 490 L -192.7 490 L -192.7 568.3 z M -272 568.3 L -193.7 568.3 L -193.7 490 L -272 490 L -272 568.3 z M -351.2 568.3 L -273 568.3 L -273 490 L -351.2 490 L -351.2 568.3 z M -425.5 568.3 L -352.2 568.3 L -352.2 490 L -425.5 490 L -425.5 568.3 z M -504.8 568.3 L -426.5 568.3 L -426.5 490 L -504.8 490 L -504.8 568.3 z M -584 568.3 L -505.8 568.3 L -505.8 490 L -584 490 L -584 568.3 z M -663.3 568.3 L -585 568.3 L -585 490 L -663.3 490 L -663.3 568.3 z M 1684.9 489 L 1763.1000000000001 489 L 1763.1000000000001 410.7 L 1684.9 410.7 L 1684.9 489 z M 1605.6 489 L 1683.8999999999999 489 L 1683.8999999999999 410.7 L 1605.6 410.7 L 1605.6 489 z M 1526.3 489 L 1604.6 489 L 1604.6 410.7 L 1526.3 410.7 L 1526.3 489 z M 1452 489 L 1525.3 489 L 1525.3 410.7 L 1452 410.7 L 1452 489 z M 1372.8 489 L 1451 489 L 1451 410.7 L 1372.8 410.7 L 1372.8 489 z M 1293.5 489 L 1371.8 489 L 1371.8 410.7 L 1293.5 410.7 L 1293.5 489 z M 1214.2 489 L 1292.5 489 L 1292.5 410.7 L 1214.2 410.7 L 1214.2 489 z M 1140 489 L 1213.2 489 L 1213.2 410.7 L 1140 410.7 L 1140 489 z M 1060.7 489 L 1139 489 L 1139 410.7 L 1060.7 410.7 L 1060.7 489 z M 981.4 489 L 1059.7 489 L 1059.7 410.7 L 981.4000000000001 410.7 L 981.4000000000001 489 z M 902.1 489 L 980.4 489 L 980.4 410.7 L 902.1 410.7 L 902.1 489 z M 827.9 489 L 901.1 489 L 901.1 410.7 L 827.9 410.7 L 827.9 489 z M 748.6 489 L 826.9 489 L 826.9 410.7 L 748.6 410.7 L 748.6 489 z M 669.3 489 L 747.5999999999999 489 L 747.5999999999999 410.7 L 669.3 410.7 L 669.3 489 z M 590 489 L 668.3 489 L 668.3 410.7 L 590 410.7 L 590 489 z M 510.8 489 L 589 489 L 589 410.7 L 510.8 410.7 L 510.8 489 z M 431.5 489 L 509.8 489 L 509.8 410.7 L 431.5 410.7 L 431.5 489 z M 352.2 489 L 430.5 489 L 430.5 410.7 L 352.2 410.7 L 352.2 489 z M 273 489 L 351.2 489 L 351.2 410.7 L 273 410.7 L 273 489 z M 198.7 489 L 272 489 L 272 410.7 L 198.7 410.7 L 198.7 489 z M 119.4 489 L 197.7 489 L 197.7 410.7 L 119.39999999999999 410.7 L 119.39999999999999 489 z M 40.1 489 L 118.4 489 L 118.4 410.7 L 40.1 410.7 L 40.1 489 z M -39.1 489 L 39.1 489 L 39.1 410.7 L -39.1 410.7 L -39.1 489 z M -113.4 489 L -40.10000000000001 489 L -40.10000000000001 410.7 L -113.4 410.7 L -113.4 489 z M -192.7 489 L -114.39999999999999 489 L -114.39999999999999 410.7 L -192.7 410.7 L -192.7 489 z M -272 489 L -193.7 489 L -193.7 410.7 L -272 410.7 L -272 489 z M -351.2 489 L -273 489 L -273 410.7 L -351.2 410.7 L -351.2 489 z M -425.5 489 L -352.2 489 L -352.2 410.7 L -425.5 410.7 L -425.5 489 z M -504.8 489 L -426.5 489 L -426.5 410.7 L -504.8 410.7 L -504.8 489 z M -584 489 L -505.8 489 L -505.8 410.7 L -584 410.7 L -584 489 z M -663.3 489 L -585 489 L -585 410.7 L -663.3 410.7 L -663.3 489 z M 1684.9 409.7 L 1763.1000000000001 409.7 L 1763.1000000000001 331.4 L 1684.9 331.4 L 1684.9 409.7 z M 1605.6 409.7 L 1683.8999999999999 409.7 L 1683.8999999999999 331.4 L 1605.6 331.4 L 1605.6 409.7 z M 1526.3 409.7 L 1604.6 409.7 L 1604.6 331.4 L 1526.3 331.4 L 1526.3 409.7 z M 1452 409.7 L 1525.3 409.7 L 1525.3 331.4 L 1452 331.4 L 1452 409.7 z M 1372.8 409.7 L 1451 409.7 L 1451 331.4 L 1372.8 331.4 L 1372.8 409.7 z M 1293.5 409.7 L 1371.8 409.7 L 1371.8 331.4 L 1293.5 331.4 L 1293.5 409.7 z M 1214.2 409.7 L 1292.5 409.7 L 1292.5 331.4 L 1214.2 331.4 L 1214.2 409.7 z M 1140 409.7 L 1213.2 409.7 L 1213.2 331.4 L 1140 331.4 L 1140 409.7 z M 1060.7 409.7 L 1139 409.7 L 1139 331.4 L 1060.7 331.4 L 1060.7 409.7 z M 981.4 409.7 L 1059.7 409.7 L 1059.7 331.4 L 981.4000000000001 331.4 L 981.4000000000001 409.7 z M 902.1 409.7 L 980.4 409.7 L 980.4 331.4 L 902.1 331.4 L 902.1 409.7 z M 827.9 409.7 L 901.1 409.7 L 901.1 331.4 L 827.9 331.4 L 827.9 409.7 z M 748.6 409.7 L 826.9 409.7 L 826.9 331.4 L 748.6 331.4 L 748.6 409.7 z M 669.3 409.7 L 747.5999999999999 409.7 L 747.5999999999999 331.4 L 669.3 331.4 L 669.3 409.7 z M 590 409.7 L 668.3 409.7 L 668.3 331.4 L 590 331.4 L 590 409.7 z M 510.8 409.7 L 589 409.7 L 589 331.4 L 510.8 331.4 L 510.8 409.7 z M 431.5 409.7 L 509.8 409.7 L 509.8 331.4 L 431.5 331.4 L 431.5 409.7 z M 352.2 409.7 L 430.5 409.7 L 430.5 331.4 L 352.2 331.4 L 352.2 409.7 z M 273 409.7 L 351.2 409.7 L 351.2 331.4 L 273 331.4 L 273 409.7 z M 198.7 409.7 L 272 409.7 L 272 331.4 L 198.7 331.4 L 198.7 409.7 z M 119.4 409.7 L 197.7 409.7 L 197.7 331.4 L 119.39999999999999 331.4 L 119.39999999999999 409.7 z M 40.1 409.7 L 118.4 409.7 L 118.4 331.4 L 40.1 331.4 L 40.1 409.7 z M -39.1 409.7 L 39.1 409.7 L 39.1 331.4 L -39.1 331.4 L -39.1 409.7 z M -113.4 409.7 L -40.10000000000001 409.7 L -40.10000000000001 331.4 L -113.4 331.4 L -113.4 409.7 z M -192.7 409.7 L -114.39999999999999 409.7 L -114.39999999999999 331.4 L -192.7 331.4 L -192.7 409.7 z M -272 409.7 L -193.7 409.7 L -193.7 331.4 L -272 331.4 L -272 409.7 z M -351.2 409.7 L -273 409.7 L -273 331.4 L -351.2 331.4 L -351.2 409.7 z M -425.5 409.7 L -352.2 409.7 L -352.2 331.4 L -425.5 331.4 L -425.5 409.7 z M -504.8 409.7 L -426.5 409.7 L -426.5 331.4 L -504.8 331.4 L -504.8 409.7 z M -584 409.7 L -505.8 409.7 L -505.8 331.4 L -584 331.4 L -584 409.7 z M -663.3 409.7 L -585 409.7 L -585 331.4 L -663.3 331.4 L -663.3 409.7 z M 1684.9 330.4 L 1763.1000000000001 330.4 L 1763.1000000000001 257.2 L 1684.9 257.2 L 1684.9 330.4 z M 1605.6 330.4 L 1683.8999999999999 330.4 L 1683.8999999999999 257.2 L 1605.6 257.2 L 1605.6 330.4 z M 1526.3 330.4 L 1604.6 330.4 L 1604.6 257.2 L 1526.3 257.2 L 1526.3 330.4 z M 1452 330.4 L 1525.3 330.4 L 1525.3 257.2 L 1452 257.2 L 1452 330.4 z M 1372.8 330.4 L 1451 330.4 L 1451 257.2 L 1372.8 257.2 L 1372.8 330.4 z M 1293.5 330.4 L 1371.8 330.4 L 1371.8 257.2 L 1293.5 257.2 L 1293.5 330.4 z M 1214.2 330.4 L 1292.5 330.4 L 1292.5 257.2 L 1214.2 257.2 L 1214.2 330.4 z M 1140 330.4 L 1213.2 330.4 L 1213.2 257.2 L 1140 257.2 L 1140 330.4 z M 1060.7 330.4 L 1139 330.4 L 1139 257.2 L 1060.7 257.2 L 1060.7 330.4 z M 981.4 330.4 L 1059.7 330.4 L 1059.7 257.2 L 981.4000000000001 257.2 L 981.4000000000001 330.4 z M 902.1 330.4 L 980.4 330.4 L 980.4 257.2 L 902.1 257.2 L 902.1 330.4 z M 827.9 330.4 L 901.1 330.4 L 901.1 257.2 L 827.9 257.2 L 827.9 330.4 z M 748.6 330.4 L 826.9 330.4 L 826.9 257.2 L 748.6 257.2 L 748.6 330.4 z M 669.3 330.4 L 747.5999999999999 330.4 L 747.5999999999999 257.2 L 669.3 257.2 L 669.3 330.4 z M 590 330.4 L 668.3 330.4 L 668.3 257.2 L 590 257.2 L 590 330.4 z M 510.8 330.4 L 589 330.4 L 589 257.2 L 510.8 257.2 L 510.8 330.4 z M 431.5 330.4 L 509.8 330.4 L 509.8 257.2 L 431.5 257.2 L 431.5 330.4 z M 352.2 330.4 L 430.5 330.4 L 430.5 257.2 L 352.2 257.2 L 352.2 330.4 z M 273 330.4 L 351.2 330.4 L 351.2 257.2 L 273 257.2 L 273 330.4 z M 198.7 330.4 L 272 330.4 L 272 257.2 L 198.7 257.2 L 198.7 330.4 z M 119.4 330.4 L 197.7 330.4 L 197.7 257.2 L 119.39999999999999 257.2 L 119.39999999999999 330.4 z M 40.1 330.4 L 118.4 330.4 L 118.4 257.2 L 40.1 257.2 L 40.1 330.4 z M -39.1 330.4 L 39.1 330.4 L 39.1 257.2 L -39.1 257.2 L -39.1 330.4 z M -113.4 330.4 L -40.10000000000001 330.4 L -40.10000000000001 257.2 L -113.4 257.2 L -113.4 330.4 z M -192.7 330.4 L -114.39999999999999 330.4 L -114.39999999999999 257.2 L -192.7 257.2 L -192.7 330.4 z M -272 330.4 L -193.7 330.4 L -193.7 257.2 L -272 257.2 L -272 330.4 z M -351.2 330.4 L -273 330.4 L -273 257.2 L -351.2 257.2 L -351.2 330.4 z M -425.5 330.4 L -352.2 330.4 L -352.2 257.2 L -425.5 257.2 L -425.5 330.4 z M -504.8 330.4 L -426.5 330.4 L -426.5 257.2 L -504.8 257.2 L -504.8 330.4 z M -584 330.4 L -505.8 330.4 L -505.8 257.2 L -584 257.2 L -584 330.4 z M -663.3 330.4 L -585 330.4 L -585 257.2 L -663.3 257.2 L -663.3 330.4 z M 1684.9 256.2 L 1763.1000000000001 256.2 L 1763.1000000000001 177.89999999999998 L 1684.9 177.89999999999998 L 1684.9 256.2 z M 1605.6 256.2 L 1683.8999999999999 256.2 L 1683.8999999999999 177.89999999999998 L 1605.6 177.89999999999998 L 1605.6 256.2 z M 1526.3 256.2 L 1604.6 256.2 L 1604.6 177.89999999999998 L 1526.3 177.89999999999998 L 1526.3 256.2 z M 1452 256.2 L 1525.3 256.2 L 1525.3 177.89999999999998 L 1452 177.89999999999998 L 1452 256.2 z M 1372.8 256.2 L 1451 256.2 L 1451 177.89999999999998 L 1372.8 177.89999999999998 L 1372.8 256.2 z M 1293.5 256.2 L 1371.8 256.2 L 1371.8 177.89999999999998 L 1293.5 177.89999999999998 L 1293.5 256.2 z M 1214.2 256.2 L 1292.5 256.2 L 1292.5 177.89999999999998 L 1214.2 177.89999999999998 L 1214.2 256.2 z M 1140 256.2 L 1213.2 256.2 L 1213.2 177.89999999999998 L 1140 177.89999999999998 L 1140 256.2 z M 1060.7 256.2 L 1139 256.2 L 1139 177.89999999999998 L 1060.7 177.89999999999998 L 1060.7 256.2 z M 981.4 256.2 L 1059.7 256.2 L 1059.7 177.89999999999998 L 981.4000000000001 177.89999999999998 L 981.4000000000001 256.2 z M 902.1 256.2 L 980.4 256.2 L 980.4 177.89999999999998 L 902.1 177.89999999999998 L 902.1 256.2 z M 827.9 256.2 L 901.1 256.2 L 901.1 177.89999999999998 L 827.9 177.89999999999998 L 827.9 256.2 z M 748.6 256.2 L 826.9 256.2 L 826.9 177.89999999999998 L 748.6 177.89999999999998 L 748.6 256.2 z M 669.3 256.2 L 747.5999999999999 256.2 L 747.5999999999999 177.89999999999998 L 669.3 177.89999999999998 L 669.3 256.2 z M 590 256.2 L 668.3 256.2 L 668.3 177.89999999999998 L 590 177.89999999999998 L 590 256.2 z M 510.8 256.2 L 589 256.2 L 589 177.89999999999998 L 510.8 177.89999999999998 L 510.8 256.2 z M 431.5 256.2 L 509.8 256.2 L 509.8 177.89999999999998 L 431.5 177.89999999999998 L 431.5 256.2 z M 352.2 256.2 L 430.5 256.2 L 430.5 177.89999999999998 L 352.2 177.89999999999998 L 352.2 256.2 z M 273 256.2 L 351.2 256.2 L 351.2 177.89999999999998 L 273 177.89999999999998 L 273 256.2 z M 198.7 256.2 L 272 256.2 L 272 177.89999999999998 L 198.7 177.89999999999998 L 198.7 256.2 z M 119.4 256.2 L 197.7 256.2 L 197.7 177.89999999999998 L 119.39999999999999 177.89999999999998 L 119.39999999999999 256.2 z M 40.1 256.2 L 118.4 256.2 L 118.4 177.89999999999998 L 40.1 177.89999999999998 L 40.1 256.2 z M -39.1 256.2 L 39.1 256.2 L 39.1 177.89999999999998 L -39.1 177.89999999999998 L -39.1 256.2 z M -113.4 256.2 L -40.10000000000001 256.2 L -40.10000000000001 177.89999999999998 L -113.4 177.89999999999998 L -113.4 256.2 z M -192.7 256.2 L -114.39999999999999 256.2 L -114.39999999999999 177.89999999999998 L -192.7 177.89999999999998 L -192.7 256.2 z M -272 256.2 L -193.7 256.2 L -193.7 177.89999999999998 L -272 177.89999999999998 L -272 256.2 z M -351.2 256.2 L -273 256.2 L -273 177.89999999999998 L -351.2 177.89999999999998 L -351.2 256.2 z M -425.5 256.2 L -352.2 256.2 L -352.2 177.89999999999998 L -425.5 177.89999999999998 L -425.5 256.2 z M -504.8 256.2 L -426.5 256.2 L -426.5 177.89999999999998 L -504.8 177.89999999999998 L -504.8 256.2 z M -584 256.2 L -505.8 256.2 L -505.8 177.89999999999998 L -584 177.89999999999998 L -584 256.2 z M -663.3 256.2 L -585 256.2 L -585 177.89999999999998 L -663.3 177.89999999999998 L -663.3 256.2 z M 1684.9 176.9 L 1763.1000000000001 176.9 L 1763.1000000000001 98.6 L 1684.9 98.6 L 1684.9 176.9 z M 1605.6 176.9 L 1683.8999999999999 176.9 L 1683.8999999999999 98.6 L 1605.6 98.6 L 1605.6 176.9 z M 1526.3 176.9 L 1604.6 176.9 L 1604.6 98.6 L 1526.3 98.6 L 1526.3 176.9 z M 1452 176.9 L 1525.3 176.9 L 1525.3 98.6 L 1452 98.6 L 1452 176.9 z M 1372.8 176.9 L 1451 176.9 L 1451 98.6 L 1372.8 98.6 L 1372.8 176.9 z M 1293.5 176.9 L 1371.8 176.9 L 1371.8 98.6 L 1293.5 98.6 L 1293.5 176.9 z M 1214.2 176.9 L 1292.5 176.9 L 1292.5 98.6 L 1214.2 98.6 L 1214.2 176.9 z M 1140 176.9 L 1213.2 176.9 L 1213.2 98.6 L 1140 98.6 L 1140 176.9 z M 1060.7 176.9 L 1139 176.9 L 1139 98.6 L 1060.7 98.6 L 1060.7 176.9 z M 981.4 176.9 L 1059.7 176.9 L 1059.7 98.6 L 981.4000000000001 98.6 L 981.4000000000001 176.9 z M 902.1 176.9 L 980.4 176.9 L 980.4 98.6 L 902.1 98.6 L 902.1 176.9 z M 827.9 176.9 L 901.1 176.9 L 901.1 98.6 L 827.9 98.6 L 827.9 176.9 z M 748.6 176.9 L 826.9 176.9 L 826.9 98.6 L 748.6 98.6 L 748.6 176.9 z M 669.3 176.9 L 747.5999999999999 176.9 L 747.5999999999999 98.6 L 669.3 98.6 L 669.3 176.9 z M 590 176.9 L 668.3 176.9 L 668.3 98.6 L 590 98.6 L 590 176.9 z M 510.8 176.9 L 589 176.9 L 589 98.6 L 510.8 98.6 L 510.8 176.9 z M 431.5 176.9 L 509.8 176.9 L 509.8 98.6 L 431.5 98.6 L 431.5 176.9 z M 352.2 176.9 L 430.5 176.9 L 430.5 98.6 L 352.2 98.6 L 352.2 176.9 z M 273 176.9 L 351.2 176.9 L 351.2 98.6 L 273 98.6 L 273 176.9 z M 198.7 176.9 L 272 176.9 L 272 98.6 L 198.7 98.6 L 198.7 176.9 z M 119.4 176.9 L 197.7 176.9 L 197.7 98.6 L 119.39999999999999 98.6 L 119.39999999999999 176.9 z M 40.1 176.9 L 118.4 176.9 L 118.4 98.6 L 40.1 98.6 L 40.1 176.9 z M -39.1 176.9 L 39.1 176.9 L 39.1 98.6 L -39.1 98.6 L -39.1 176.9 z M -113.4 176.9 L -40.10000000000001 176.9 L -40.10000000000001 98.6 L -113.4 98.6 L -113.4 176.9 z M -192.7 176.9 L -114.39999999999999 176.9 L -114.39999999999999 98.6 L -192.7 98.6 L -192.7 176.9 z M -272 176.9 L -193.7 176.9 L -193.7 98.6 L -272 98.6 L -272 176.9 z M -351.2 176.9 L -273 176.9 L -273 98.6 L -351.2 98.6 L -351.2 176.9 z M -425.5 176.9 L -352.2 176.9 L -352.2 98.6 L -425.5 98.6 L -425.5 176.9 z M -504.8 176.9 L -426.5 176.9 L -426.5 98.6 L -504.8 98.6 L -504.8 176.9 z M -584 176.9 L -505.8 176.9 L -505.8 98.6 L -584 98.6 L -584 176.9 z M -663.3 176.9 L -585 176.9 L -585 98.6 L -663.3 98.6 L -663.3 176.9 z M 1684.9 97.6 L 1763.1000000000001 97.6 L 1763.1000000000001 19.4 L 1684.9 19.4 L 1684.9 97.6 z M 1605.6 97.6 L 1683.8999999999999 97.6 L 1683.8999999999999 19.4 L 1605.6 19.4 L 1605.6 97.6 z M 1526.3 97.6 L 1604.6 97.6 L 1604.6 19.4 L 1526.3 19.4 L 1526.3 97.6 z M 1452 97.6 L 1525.3 97.6 L 1525.3 19.4 L 1452 19.4 L 1452 97.6 z M 1372.8 97.6 L 1451 97.6 L 1451 19.4 L 1372.8 19.4 L 1372.8 97.6 z M 1293.5 97.6 L 1371.8 97.6 L 1371.8 19.4 L 1293.5 19.4 L 1293.5 97.6 z M 1214.2 97.6 L 1292.5 97.6 L 1292.5 19.4 L 1214.2 19.4 L 1214.2 97.6 z M 1140 97.6 L 1213.2 97.6 L 1213.2 19.4 L 1140 19.4 L 1140 97.6 z M 1060.7 97.6 L 1139 97.6 L 1139 19.4 L 1060.7 19.4 L 1060.7 97.6 z M 981.4 97.6 L 1059.7 97.6 L 1059.7 19.4 L 981.4000000000001 19.4 L 981.4000000000001 97.6 z M 902.1 97.6 L 980.4 97.6 L 980.4 19.4 L 902.1 19.4 L 902.1 97.6 z M 827.9 97.6 L 901.1 97.6 L 901.1 19.4 L 827.9 19.4 L 827.9 97.6 z M 748.6 97.6 L 826.9 97.6 L 826.9 19.4 L 748.6 19.4 L 748.6 97.6 z M 669.3 97.6 L 747.5999999999999 97.6 L 747.5999999999999 19.4 L 669.3 19.4 L 669.3 97.6 z M 590 97.6 L 668.3 97.6 L 668.3 19.4 L 590 19.4 L 590 97.6 z M 510.8 97.6 L 589 97.6 L 589 19.4 L 510.8 19.4 L 510.8 97.6 z M 431.5 97.6 L 509.8 97.6 L 509.8 19.4 L 431.5 19.4 L 431.5 97.6 z M 352.2 97.6 L 430.5 97.6 L 430.5 19.4 L 352.2 19.4 L 352.2 97.6 z M 273 97.6 L 351.2 97.6 L 351.2 19.4 L 273 19.4 L 273 97.6 z M 198.7 97.6 L 272 97.6 L 272 19.4 L 198.7 19.4 L 198.7 97.6 z M 119.4 97.6 L 197.7 97.6 L 197.7 19.4 L 119.39999999999999 19.4 L 119.39999999999999 97.6 z M 40.1 97.6 L 118.4 97.6 L 118.4 19.4 L 40.1 19.4 L 40.1 97.6 z M -39.1 97.6 L 39.1 97.6 L 39.1 19.4 L -39.1 19.4 L -39.1 97.6 z M -113.4 97.6 L -40.10000000000001 97.6 L -40.10000000000001 19.4 L -113.4 19.4 L -113.4 97.6 z M -192.7 97.6 L -114.39999999999999 97.6 L -114.39999999999999 19.4 L -192.7 19.4 L -192.7 97.6 z M -272 97.6 L -193.7 97.6 L -193.7 19.4 L -272 19.4 L -272 97.6 z M -351.2 97.6 L -273 97.6 L -273 19.4 L -351.2 19.4 L -351.2 97.6 z M -425.5 97.6 L -352.2 97.6 L -352.2 19.4 L -425.5 19.4 L -425.5 97.6 z M -504.8 97.6 L -426.5 97.6 L -426.5 19.4 L -504.8 19.4 L -504.8 97.6 z M -584 97.6 L -505.8 97.6 L -505.8 19.4 L -584 19.4 L -584 97.6 z M -663.3 97.6 L -585 97.6 L -585 19.4 L -663.3 19.4 L -663.3 97.6 z M 1684.9 18.4 L 1763.1000000000001 18.4 L 1763.1000000000001 -54.9 L 1684.9 -54.9 L 1684.9 18.4 z M 1605.6 18.4 L 1683.8999999999999 18.4 L 1683.8999999999999 -54.9 L 1605.6 -54.9 L 1605.6 18.4 z M 1526.3 18.4 L 1604.6 18.4 L 1604.6 -54.9 L 1526.3 -54.9 L 1526.3 18.4 z M 1452 18.4 L 1525.3 18.4 L 1525.3 -54.9 L 1452 -54.9 L 1452 18.4 z M 1372.8 18.4 L 1451 18.4 L 1451 -54.9 L 1372.8 -54.9 L 1372.8 18.4 z M 1293.5 18.4 L 1371.8 18.4 L 1371.8 -54.9 L 1293.5 -54.9 L 1293.5 18.4 z M 1214.2 18.4 L 1292.5 18.4 L 1292.5 -54.9 L 1214.2 -54.9 L 1214.2 18.4 z M 1140 18.4 L 1213.2 18.4 L 1213.2 -54.9 L 1140 -54.9 L 1140 18.4 z M 1060.7 18.4 L 1139 18.4 L 1139 -54.9 L 1060.7 -54.9 L 1060.7 18.4 z M 981.4 18.4 L 1059.7 18.4 L 1059.7 -54.9 L 981.4000000000001 -54.9 L 981.4000000000001 18.4 z M 902.1 18.4 L 980.4 18.4 L 980.4 -54.9 L 902.1 -54.9 L 902.1 18.4 z M 827.9 18.4 L 901.1 18.4 L 901.1 -54.9 L 827.9 -54.9 L 827.9 18.4 z M 748.6 18.4 L 826.9 18.4 L 826.9 -54.9 L 748.6 -54.9 L 748.6 18.4 z M 669.3 18.4 L 747.5999999999999 18.4 L 747.5999999999999 -54.9 L 669.3 -54.9 L 669.3 18.4 z M 590 18.4 L 668.3 18.4 L 668.3 -54.9 L 590 -54.9 L 590 18.4 z M 510.8 18.4 L 589 18.4 L 589 -54.9 L 510.8 -54.9 L 510.8 18.4 z M 431.5 18.4 L 509.8 18.4 L 509.8 -54.9 L 431.5 -54.9 L 431.5 18.4 z M 352.2 18.4 L 430.5 18.4 L 430.5 -54.9 L 352.2 -54.9 L 352.2 18.4 z M 273 18.4 L 351.2 18.4 L 351.2 -54.9 L 273 -54.9 L 273 18.4 z M 198.7 18.4 L 272 18.4 L 272 -54.9 L 198.7 -54.9 L 198.7 18.4 z M 119.4 18.4 L 197.7 18.4 L 197.7 -54.9 L 119.39999999999999 -54.9 L 119.39999999999999 18.4 z M 40.1 18.4 L 118.4 18.4 L 118.4 -54.9 L 40.1 -54.9 L 40.1 18.4 z M -39.1 18.4 L 39.1 18.4 L 39.1 -54.9 L -39.1 -54.9 L -39.1 18.4 z M -113.4 18.4 L -40.10000000000001 18.4 L -40.10000000000001 -54.9 L -113.4 -54.9 L -113.4 18.4 z M -192.7 18.4 L -114.39999999999999 18.4 L -114.39999999999999 -54.9 L -192.7 -54.9 L -192.7 18.4 z M -272 18.4 L -193.7 18.4 L -193.7 -54.9 L -272 -54.9 L -272 18.4 z M -351.2 18.4 L -273 18.4 L -273 -54.9 L -351.2 -54.9 L -351.2 18.4 z M -425.5 18.4 L -352.2 18.4 L -352.2 -54.9 L -425.5 -54.9 L -425.5 18.4 z M -504.8 18.4 L -426.5 18.4 L -426.5 -54.9 L -504.8 -54.9 L -504.8 18.4 z M -584 18.4 L -505.8 18.4 L -505.8 -54.9 L -584 -54.9 L -584 18.4 z M -663.3 18.4 L -585 18.4 L -585 -54.9 L -663.3 -54.9 L -663.3 18.4 z M 1684.9 -55.9 L 1763.1000000000001 -55.9 L 1763.1000000000001 -134.2 L 1684.9 -134.2 L 1684.9 -55.9 z M 1605.6 -55.9 L 1683.8999999999999 -55.9 L 1683.8999999999999 -134.2 L 1605.6 -134.2 L 1605.6 -55.9 z M 1526.3 -55.9 L 1604.6 -55.9 L 1604.6 -134.2 L 1526.3 -134.2 L 1526.3 -55.9 z M 1452 -55.9 L 1525.3 -55.9 L 1525.3 -134.2 L 1452 -134.2 L 1452 -55.9 z M 1372.8 -55.9 L 1451 -55.9 L 1451 -134.2 L 1372.8 -134.2 L 1372.8 -55.9 z M 1293.5 -55.9 L 1371.8 -55.9 L 1371.8 -134.2 L 1293.5 -134.2 L 1293.5 -55.9 z M 1214.2 -55.9 L 1292.5 -55.9 L 1292.5 -134.2 L 1214.2 -134.2 L 1214.2 -55.9 z M 1140 -55.9 L 1213.2 -55.9 L 1213.2 -134.2 L 1140 -134.2 L 1140 -55.9 z M 1060.7 -55.9 L 1139 -55.9 L 1139 -134.2 L 1060.7 -134.2 L 1060.7 -55.9 z M 981.4 -55.9 L 1059.7 -55.9 L 1059.7 -134.2 L 981.4000000000001 -134.2 L 981.4000000000001 -55.9 z M 902.1 -55.9 L 980.4 -55.9 L 980.4 -134.2 L 902.1 -134.2 L 902.1 -55.9 z M 827.9 -55.9 L 901.1 -55.9 L 901.1 -134.2 L 827.9 -134.2 L 827.9 -55.9 z M 748.6 -55.9 L 826.9 -55.9 L 826.9 -134.2 L 748.6 -134.2 L 748.6 -55.9 z M 669.3 -55.9 L 747.5999999999999 -55.9 L 747.5999999999999 -134.2 L 669.3 -134.2 L 669.3 -55.9 z M 590 -55.9 L 668.3 -55.9 L 668.3 -134.2 L 590 -134.2 L 590 -55.9 z M 510.8 -55.9 L 589 -55.9 L 589 -134.2 L 510.8 -134.2 L 510.8 -55.9 z M 431.5 -55.9 L 509.8 -55.9 L 509.8 -134.2 L 431.5 -134.2 L 431.5 -55.9 z M 352.2 -55.9 L 430.5 -55.9 L 430.5 -134.2 L 352.2 -134.2 L 352.2 -55.9 z M 273 -55.9 L 351.2 -55.9 L 351.2 -134.2 L 273 -134.2 L 273 -55.9 z M 198.7 -55.9 L 272 -55.9 L 272 -134.2 L 198.7 -134.2 L 198.7 -55.9 z M 119.4 -55.9 L 197.7 -55.9 L 197.7 -134.2 L 119.39999999999999 -134.2 L 119.39999999999999 -55.9 z M 40.1 -55.9 L 118.4 -55.9 L 118.4 -134.2 L 40.1 -134.2 L 40.1 -55.9 z M -39.1 -55.9 L 39.1 -55.9 L 39.1 -134.2 L -39.1 -134.2 L -39.1 -55.9 z M -113.4 -55.9 L -40.10000000000001 -55.9 L -40.10000000000001 -134.2 L -113.4 -134.2 L -113.4 -55.9 z M -192.7 -55.9 L -114.39999999999999 -55.9 L -114.39999999999999 -134.2 L -192.7 -134.2 L -192.7 -55.9 z M -272 -55.9 L -193.7 -55.9 L -193.7 -134.2 L -272 -134.2 L -272 -55.9 z M -351.2 -55.9 L -273 -55.9 L -273 -134.2 L -351.2 -134.2 L -351.2 -55.9 z M -425.5 -55.9 L -352.2 -55.9 L -352.2 -134.2 L -425.5 -134.2 L -425.5 -55.9 z M -504.8 -55.9 L -426.5 -55.9 L -426.5 -134.2 L -504.8 -134.2 L -504.8 -55.9 z M -584 -55.9 L -505.8 -55.9 L -505.8 -134.2 L -584 -134.2 L -584 -55.9 z M -663.3 -55.9 L -585 -55.9 L -585 -134.2 L -663.3 -134.2 L -663.3 -55.9 z M 1684.9 -135.2 L 1763.1000000000001 -135.2 L 1763.1000000000001 -213.5 L 1684.9 -213.5 L 1684.9 -135.2 z M 1605.6 -135.2 L 1683.8999999999999 -135.2 L 1683.8999999999999 -213.5 L 1605.6 -213.5 L 1605.6 -135.2 z M 1526.3 -135.2 L 1604.6 -135.2 L 1604.6 -213.5 L 1526.3 -213.5 L 1526.3 -135.2 z M 1452 -135.2 L 1525.3 -135.2 L 1525.3 -213.5 L 1452 -213.5 L 1452 -135.2 z M 1372.8 -135.2 L 1451 -135.2 L 1451 -213.5 L 1372.8 -213.5 L 1372.8 -135.2 z M 1293.5 -135.2 L 1371.8 -135.2 L 1371.8 -213.5 L 1293.5 -213.5 L 1293.5 -135.2 z M 1214.2 -135.2 L 1292.5 -135.2 L 1292.5 -213.5 L 1214.2 -213.5 L 1214.2 -135.2 z M 1140 -135.2 L 1213.2 -135.2 L 1213.2 -213.5 L 1140 -213.5 L 1140 -135.2 z M 1060.7 -135.2 L 1139 -135.2 L 1139 -213.5 L 1060.7 -213.5 L 1060.7 -135.2 z M 981.4 -135.2 L 1059.7 -135.2 L 1059.7 -213.5 L 981.4000000000001 -213.5 L 981.4000000000001 -135.2 z M 902.1 -135.2 L 980.4 -135.2 L 980.4 -213.5 L 902.1 -213.5 L 902.1 -135.2 z M 827.9 -135.2 L 901.1 -135.2 L 901.1 -213.5 L 827.9 -213.5 L 827.9 -135.2 z M 748.6 -135.2 L 826.9 -135.2 L 826.9 -213.5 L 748.6 -213.5 L 748.6 -135.2 z M 669.3 -135.2 L 747.5999999999999 -135.2 L 747.5999999999999 -213.5 L 669.3 -213.5 L 669.3 -135.2 z M 590 -135.2 L 668.3 -135.2 L 668.3 -213.5 L 590 -213.5 L 590 -135.2 z M 510.8 -135.2 L 589 -135.2 L 589 -213.5 L 510.8 -213.5 L 510.8 -135.2 z M 431.5 -135.2 L 509.8 -135.2 L 509.8 -213.5 L 431.5 -213.5 L 431.5 -135.2 z M 352.2 -135.2 L 430.5 -135.2 L 430.5 -213.5 L 352.2 -213.5 L 352.2 -135.2 z M 273 -135.2 L 351.2 -135.2 L 351.2 -213.5 L 273 -213.5 L 273 -135.2 z M 198.7 -135.2 L 272 -135.2 L 272 -213.5 L 198.7 -213.5 L 198.7 -135.2 z M 119.4 -135.2 L 197.7 -135.2 L 197.7 -213.5 L 119.39999999999999 -213.5 L 119.39999999999999 -135.2 z M 40.1 -135.2 L 118.4 -135.2 L 118.4 -213.5 L 40.1 -213.5 L 40.1 -135.2 z M -39.1 -135.2 L 39.1 -135.2 L 39.1 -213.5 L -39.1 -213.5 L -39.1 -135.2 z M -113.4 -135.2 L -40.10000000000001 -135.2 L -40.10000000000001 -213.5 L -113.4 -213.5 L -113.4 -135.2 z M -192.7 -135.2 L -114.39999999999999 -135.2 L -114.39999999999999 -213.5 L -192.7 -213.5 L -192.7 -135.2 z M -272 -135.2 L -193.7 -135.2 L -193.7 -213.5 L -272 -213.5 L -272 -135.2 z M -351.2 -135.2 L -273 -135.2 L -273 -213.5 L -351.2 -213.5 L -351.2 -135.2 z M -425.5 -135.2 L -352.2 -135.2 L -352.2 -213.5 L -425.5 -213.5 L -425.5 -135.2 z M -504.8 -135.2 L -426.5 -135.2 L -426.5 -213.5 L -504.8 -213.5 L -504.8 -135.2 z M -584 -135.2 L -505.8 -135.2 L -505.8 -213.5 L -584 -213.5 L -584 -135.2 z M -663.3 -135.2 L -585 -135.2 L -585 -213.5 L -663.3 -213.5 L -663.3 -135.2 z M 1684.9 -214.5 L 1763.1000000000001 -214.5 L 1763.1000000000001 -292.7 L 1684.9 -292.7 L 1684.9 -214.5 z M 1605.6 -214.5 L 1683.8999999999999 -214.5 L 1683.8999999999999 -292.7 L 1605.6 -292.7 L 1605.6 -214.5 z M 1526.3 -214.5 L 1604.6 -214.5 L 1604.6 -292.7 L 1526.3 -292.7 L 1526.3 -214.5 z M 1452 -214.5 L 1525.3 -214.5 L 1525.3 -292.7 L 1452 -292.7 L 1452 -214.5 z M 1372.8 -214.5 L 1451 -214.5 L 1451 -292.7 L 1372.8 -292.7 L 1372.8 -214.5 z M 1293.5 -214.5 L 1371.8 -214.5 L 1371.8 -292.7 L 1293.5 -292.7 L 1293.5 -214.5 z M 1214.2 -214.5 L 1292.5 -214.5 L 1292.5 -292.7 L 1214.2 -292.7 L 1214.2 -214.5 z M 1140 -214.5 L 1213.2 -214.5 L 1213.2 -292.7 L 1140 -292.7 L 1140 -214.5 z M 1060.7 -214.5 L 1139 -214.5 L 1139 -292.7 L 1060.7 -292.7 L 1060.7 -214.5 z M 981.4 -214.5 L 1059.7 -214.5 L 1059.7 -292.7 L 981.4000000000001 -292.7 L 981.4000000000001 -214.5 z M 902.1 -214.5 L 980.4 -214.5 L 980.4 -292.7 L 902.1 -292.7 L 902.1 -214.5 z M 827.9 -214.5 L 901.1 -214.5 L 901.1 -292.7 L 827.9 -292.7 L 827.9 -214.5 z M 748.6 -214.5 L 826.9 -214.5 L 826.9 -292.7 L 748.6 -292.7 L 748.6 -214.5 z M 669.3 -214.5 L 747.5999999999999 -214.5 L 747.5999999999999 -292.7 L 669.3 -292.7 L 669.3 -214.5 z M 590 -214.5 L 668.3 -214.5 L 668.3 -292.7 L 590 -292.7 L 590 -214.5 z M 510.8 -214.5 L 589 -214.5 L 589 -292.7 L 510.8 -292.7 L 510.8 -214.5 z M 431.5 -214.5 L 509.8 -214.5 L 509.8 -292.7 L 431.5 -292.7 L 431.5 -214.5 z M 352.2 -214.5 L 430.5 -214.5 L 430.5 -292.7 L 352.2 -292.7 L 352.2 -214.5 z M 273 -214.5 L 351.2 -214.5 L 351.2 -292.7 L 273 -292.7 L 273 -214.5 z M 198.7 -214.5 L 272 -214.5 L 272 -292.7 L 198.7 -292.7 L 198.7 -214.5 z M 119.4 -214.5 L 197.7 -214.5 L 197.7 -292.7 L 119.39999999999999 -292.7 L 119.39999999999999 -214.5 z M 40.1 -214.5 L 118.4 -214.5 L 118.4 -292.7 L 40.1 -292.7 L 40.1 -214.5 z M -39.1 -214.5 L 39.1 -214.5 L 39.1 -292.7 L -39.1 -292.7 L -39.1 -214.5 z M -113.4 -214.5 L -40.10000000000001 -214.5 L -40.10000000000001 -292.7 L -113.4 -292.7 L -113.4 -214.5 z M -192.7 -214.5 L -114.39999999999999 -214.5 L -114.39999999999999 -292.7 L -192.7 -292.7 L -192.7 -214.5 z M -272 -214.5 L -193.7 -214.5 L -193.7 -292.7 L -272 -292.7 L -272 -214.5 z M -351.2 -214.5 L -273 -214.5 L -273 -292.7 L -351.2 -292.7 L -351.2 -214.5 z M -425.5 -214.5 L -352.2 -214.5 L -352.2 -292.7 L -425.5 -292.7 L -425.5 -214.5 z M -504.8 -214.5 L -426.5 -214.5 L -426.5 -292.7 L -504.8 -292.7 L -504.8 -214.5 z M -584 -214.5 L -505.8 -214.5 L -505.8 -292.7 L -584 -292.7 L -584 -214.5 z M -663.3 -214.5 L -585 -214.5 L -585 -292.7 L -663.3 -292.7 L -663.3 -214.5 z M 1684.9 -293.7 L 1763.1000000000001 -293.7 L 1763.1000000000001 -367 L 1684.9 -367 L 1684.9 -293.7 z M 1605.6 -293.7 L 1683.8999999999999 -293.7 L 1683.8999999999999 -367 L 1605.6 -367 L 1605.6 -293.7 z M 1526.3 -293.7 L 1604.6 -293.7 L 1604.6 -367 L 1526.3 -367 L 1526.3 -293.7 z M 1452 -293.7 L 1525.3 -293.7 L 1525.3 -367 L 1452 -367 L 1452 -293.7 z M 1372.8 -293.7 L 1451 -293.7 L 1451 -367 L 1372.8 -367 L 1372.8 -293.7 z M 1293.5 -293.7 L 1371.8 -293.7 L 1371.8 -367 L 1293.5 -367 L 1293.5 -293.7 z M 1214.2 -293.7 L 1292.5 -293.7 L 1292.5 -367 L 1214.2 -367 L 1214.2 -293.7 z M 1140 -293.7 L 1213.2 -293.7 L 1213.2 -367 L 1140 -367 L 1140 -293.7 z M 1060.7 -293.7 L 1139 -293.7 L 1139 -367 L 1060.7 -367 L 1060.7 -293.7 z M 981.4 -293.7 L 1059.7 -293.7 L 1059.7 -367 L 981.4000000000001 -367 L 981.4000000000001 -293.7 z M 902.1 -293.7 L 980.4 -293.7 L 980.4 -367 L 902.1 -367 L 902.1 -293.7 z M 827.9 -293.7 L 901.1 -293.7 L 901.1 -367 L 827.9 -367 L 827.9 -293.7 z M 748.6 -293.7 L 826.9 -293.7 L 826.9 -367 L 748.6 -367 L 748.6 -293.7 z M 669.3 -293.7 L 747.5999999999999 -293.7 L 747.5999999999999 -367 L 669.3 -367 L 669.3 -293.7 z M 590 -293.7 L 668.3 -293.7 L 668.3 -367 L 590 -367 L 590 -293.7 z M 510.8 -293.7 L 589 -293.7 L 589 -367 L 510.8 -367 L 510.8 -293.7 z M 431.5 -293.7 L 509.8 -293.7 L 509.8 -367 L 431.5 -367 L 431.5 -293.7 z M 352.2 -293.7 L 430.5 -293.7 L 430.5 -367 L 352.2 -367 L 352.2 -293.7 z M 273 -293.7 L 351.2 -293.7 L 351.2 -367 L 273 -367 L 273 -293.7 z M 198.7 -293.7 L 272 -293.7 L 272 -367 L 198.7 -367 L 198.7 -293.7 z M 119.4 -293.7 L 197.7 -293.7 L 197.7 -367 L 119.39999999999999 -367 L 119.39999999999999 -293.7 z M 40.1 -293.7 L 118.4 -293.7 L 118.4 -367 L 40.1 -367 L 40.1 -293.7 z M -39.1 -293.7 L 39.1 -293.7 L 39.1 -367 L -39.1 -367 L -39.1 -293.7 z M -113.4 -293.7 L -40.10000000000001 -293.7 L -40.10000000000001 -367 L -113.4 -367 L -113.4 -293.7 z M -192.7 -293.7 L -114.39999999999999 -293.7 L -114.39999999999999 -367 L -192.7 -367 L -192.7 -293.7 z M -272 -293.7 L -193.7 -293.7 L -193.7 -367 L -272 -367 L -272 -293.7 z M -351.2 -293.7 L -273 -293.7 L -273 -367 L -351.2 -367 L -351.2 -293.7 z M -425.5 -293.7 L -352.2 -293.7 L -352.2 -367 L -425.5 -367 L -425.5 -293.7 z M -504.8 -293.7 L -426.5 -293.7 L -426.5 -367 L -504.8 -367 L -504.8 -293.7 z M -584 -293.7 L -505.8 -293.7 L -505.8 -367 L -584 -367 L -584 -293.7 z M -663.3 -293.7 L -585 -293.7 L -585 -367 L -663.3 -367 L -663.3 -293.7 z M 1684.9 -368 L 1763.1000000000001 -368 L 1763.1000000000001 -446.3 L 1684.9 -446.3 L 1684.9 -368 z M 1605.6 -368 L 1683.8999999999999 -368 L 1683.8999999999999 -446.3 L 1605.6 -446.3 L 1605.6 -368 z M 1526.3 -368 L 1604.6 -368 L 1604.6 -446.3 L 1526.3 -446.3 L 1526.3 -368 z M 1452 -368 L 1525.3 -368 L 1525.3 -446.3 L 1452 -446.3 L 1452 -368 z M 1372.8 -368 L 1451 -368 L 1451 -446.3 L 1372.8 -446.3 L 1372.8 -368 z M 1293.5 -368 L 1371.8 -368 L 1371.8 -446.3 L 1293.5 -446.3 L 1293.5 -368 z M 1214.2 -368 L 1292.5 -368 L 1292.5 -446.3 L 1214.2 -446.3 L 1214.2 -368 z M 1140 -368 L 1213.2 -368 L 1213.2 -446.3 L 1140 -446.3 L 1140 -368 z M 1060.7 -368 L 1139 -368 L 1139 -446.3 L 1060.7 -446.3 L 1060.7 -368 z M 981.4 -368 L 1059.7 -368 L 1059.7 -446.3 L 981.4000000000001 -446.3 L 981.4000000000001 -368 z M 902.1 -368 L 980.4 -368 L 980.4 -446.3 L 902.1 -446.3 L 902.1 -368 z M 827.9 -368 L 901.1 -368 L 901.1 -446.3 L 827.9 -446.3 L 827.9 -368 z M 748.6 -368 L 826.9 -368 L 826.9 -446.3 L 748.6 -446.3 L 748.6 -368 z M 669.3 -368 L 747.5999999999999 -368 L 747.5999999999999 -446.3 L 669.3 -446.3 L 669.3 -368 z M 590 -368 L 668.3 -368 L 668.3 -446.3 L 590 -446.3 L 590 -368 z M 510.8 -368 L 589 -368 L 589 -446.3 L 510.8 -446.3 L 510.8 -368 z M 431.5 -368 L 509.8 -368 L 509.8 -446.3 L 431.5 -446.3 L 431.5 -368 z M 352.2 -368 L 430.5 -368 L 430.5 -446.3 L 352.2 -446.3 L 352.2 -368 z M 273 -368 L 351.2 -368 L 351.2 -446.3 L 273 -446.3 L 273 -368 z M 198.7 -368 L 272 -368 L 272 -446.3 L 198.7 -446.3 L 198.7 -368 z M 119.4 -368 L 197.7 -368 L 197.7 -446.3 L 119.39999999999999 -446.3 L 119.39999999999999 -368 z M 40.1 -368 L 118.4 -368 L 118.4 -446.3 L 40.1 -446.3 L 40.1 -368 z M -39.1 -368 L 39.1 -368 L 39.1 -446.3 L -39.1 -446.3 L -39.1 -368 z M -113.4 -368 L -40.10000000000001 -368 L -40.10000000000001 -446.3 L -113.4 -446.3 L -113.4 -368 z M -192.7 -368 L -114.39999999999999 -368 L -114.39999999999999 -446.3 L -192.7 -446.3 L -192.7 -368 z M -272 -368 L -193.7 -368 L -193.7 -446.3 L -272 -446.3 L -272 -368 z M -351.2 -368 L -273 -368 L -273 -446.3 L -351.2 -446.3 L -351.2 -368 z M -425.5 -368 L -352.2 -368 L -352.2 -446.3 L -425.5 -446.3 L -425.5 -368 z M -504.8 -368 L -426.5 -368 L -426.5 -446.3 L -504.8 -446.3 L -504.8 -368 z M -584 -368 L -505.8 -368 L -505.8 -446.3 L -584 -446.3 L -584 -368 z M -663.3 -368 L -585 -368 L -585 -446.3 L -663.3 -446.3 L -663.3 -368 z M 1684.9 -447.3 L 1763.1000000000001 -447.3 L 1763.1000000000001 -525.6 L 1684.9 -525.6 L 1684.9 -447.3 z M 1605.6 -447.3 L 1683.8999999999999 -447.3 L 1683.8999999999999 -525.6 L 1605.6 -525.6 L 1605.6 -447.3 z M 1526.3 -447.3 L 1604.6 -447.3 L 1604.6 -525.6 L 1526.3 -525.6 L 1526.3 -447.3 z M 1452 -447.3 L 1525.3 -447.3 L 1525.3 -525.6 L 1452 -525.6 L 1452 -447.3 z M 1372.8 -447.3 L 1451 -447.3 L 1451 -525.6 L 1372.8 -525.6 L 1372.8 -447.3 z M 1293.5 -447.3 L 1371.8 -447.3 L 1371.8 -525.6 L 1293.5 -525.6 L 1293.5 -447.3 z M 1214.2 -447.3 L 1292.5 -447.3 L 1292.5 -525.6 L 1214.2 -525.6 L 1214.2 -447.3 z M 1140 -447.3 L 1213.2 -447.3 L 1213.2 -525.6 L 1140 -525.6 L 1140 -447.3 z M 1060.7 -447.3 L 1139 -447.3 L 1139 -525.6 L 1060.7 -525.6 L 1060.7 -447.3 z M 981.4 -447.3 L 1059.7 -447.3 L 1059.7 -525.6 L 981.4000000000001 -525.6 L 981.4000000000001 -447.3 z M 902.1 -447.3 L 980.4 -447.3 L 980.4 -525.6 L 902.1 -525.6 L 902.1 -447.3 z M 827.9 -447.3 L 901.1 -447.3 L 901.1 -525.6 L 827.9 -525.6 L 827.9 -447.3 z M 748.6 -447.3 L 826.9 -447.3 L 826.9 -525.6 L 748.6 -525.6 L 748.6 -447.3 z M 669.3 -447.3 L 747.5999999999999 -447.3 L 747.5999999999999 -525.6 L 669.3 -525.6 L 669.3 -447.3 z M 590 -447.3 L 668.3 -447.3 L 668.3 -525.6 L 590 -525.6 L 590 -447.3 z M 510.8 -447.3 L 589 -447.3 L 589 -525.6 L 510.8 -525.6 L 510.8 -447.3 z M 431.5 -447.3 L 509.8 -447.3 L 509.8 -525.6 L 431.5 -525.6 L 431.5 -447.3 z M 352.2 -447.3 L 430.5 -447.3 L 430.5 -525.6 L 352.2 -525.6 L 352.2 -447.3 z M 273 -447.3 L 351.2 -447.3 L 351.2 -525.6 L 273 -525.6 L 273 -447.3 z M 198.7 -447.3 L 272 -447.3 L 272 -525.6 L 198.7 -525.6 L 198.7 -447.3 z M 119.4 -447.3 L 197.7 -447.3 L 197.7 -525.6 L 119.39999999999999 -525.6 L 119.39999999999999 -447.3 z M 40.1 -447.3 L 118.4 -447.3 L 118.4 -525.6 L 40.1 -525.6 L 40.1 -447.3 z M -39.1 -447.3 L 39.1 -447.3 L 39.1 -525.6 L -39.1 -525.6 L -39.1 -447.3 z M -113.4 -447.3 L -40.10000000000001 -447.3 L -40.10000000000001 -525.6 L -113.4 -525.6 L -113.4 -447.3 z M -192.7 -447.3 L -114.39999999999999 -447.3 L -114.39999999999999 -525.6 L -192.7 -525.6 L -192.7 -447.3 z M -272 -447.3 L -193.7 -447.3 L -193.7 -525.6 L -272 -525.6 L -272 -447.3 z M -351.2 -447.3 L -273 -447.3 L -273 -525.6 L -351.2 -525.6 L -351.2 -447.3 z M -425.5 -447.3 L -352.2 -447.3 L -352.2 -525.6 L -425.5 -525.6 L -425.5 -447.3 z M -504.8 -447.3 L -426.5 -447.3 L -426.5 -525.6 L -504.8 -525.6 L -504.8 -447.3 z M -584 -447.3 L -505.8 -447.3 L -505.8 -525.6 L -584 -525.6 L -584 -447.3 z M -663.3 -447.3 L -585 -447.3 L -585 -525.6 L -663.3 -525.6 L -663.3 -447.3 z M 1684.9 -526.6 L 1763.1000000000001 -526.6 L 1763.1000000000001 -604.8000000000001 L 1684.9 -604.8000000000001 L 1684.9 -526.6 z M 1605.6 -526.6 L 1683.8999999999999 -526.6 L 1683.8999999999999 -604.8000000000001 L 1605.6 -604.8000000000001 L 1605.6 -526.6 z M 1526.3 -526.6 L 1604.6 -526.6 L 1604.6 -604.8000000000001 L 1526.3 -604.8000000000001 L 1526.3 -526.6 z M 1452 -526.6 L 1525.3 -526.6 L 1525.3 -604.8000000000001 L 1452 -604.8000000000001 L 1452 -526.6 z M 1372.8 -526.6 L 1451 -526.6 L 1451 -604.8000000000001 L 1372.8 -604.8000000000001 L 1372.8 -526.6 z M 1293.5 -526.6 L 1371.8 -526.6 L 1371.8 -604.8000000000001 L 1293.5 -604.8000000000001 L 1293.5 -526.6 z M 1214.2 -526.6 L 1292.5 -526.6 L 1292.5 -604.8000000000001 L 1214.2 -604.8000000000001 L 1214.2 -526.6 z M 1140 -526.6 L 1213.2 -526.6 L 1213.2 -604.8000000000001 L 1140 -604.8000000000001 L 1140 -526.6 z M 1060.7 -526.6 L 1139 -526.6 L 1139 -604.8000000000001 L 1060.7 -604.8000000000001 L 1060.7 -526.6 z M 981.4 -526.6 L 1059.7 -526.6 L 1059.7 -604.8000000000001 L 981.4000000000001 -604.8000000000001 L 981.4000000000001 -526.6 z M 902.1 -526.6 L 980.4 -526.6 L 980.4 -604.8000000000001 L 902.1 -604.8000000000001 L 902.1 -526.6 z M 827.9 -526.6 L 901.1 -526.6 L 901.1 -604.8000000000001 L 827.9 -604.8000000000001 L 827.9 -526.6 z M 748.6 -526.6 L 826.9 -526.6 L 826.9 -604.8000000000001 L 748.6 -604.8000000000001 L 748.6 -526.6 z M 669.3 -526.6 L 747.5999999999999 -526.6 L 747.5999999999999 -604.8000000000001 L 669.3 -604.8000000000001 L 669.3 -526.6 z M 590 -526.6 L 668.3 -526.6 L 668.3 -604.8000000000001 L 590 -604.8000000000001 L 590 -526.6 z M 510.8 -526.6 L 589 -526.6 L 589 -604.8000000000001 L 510.8 -604.8000000000001 L 510.8 -526.6 z M 431.5 -526.6 L 509.8 -526.6 L 509.8 -604.8000000000001 L 431.5 -604.8000000000001 L 431.5 -526.6 z M 352.2 -526.6 L 430.5 -526.6 L 430.5 -604.8000000000001 L 352.2 -604.8000000000001 L 352.2 -526.6 z M 273 -526.6 L 351.2 -526.6 L 351.2 -604.8000000000001 L 273 -604.8000000000001 L 273 -526.6 z M 198.7 -526.6 L 272 -526.6 L 272 -604.8000000000001 L 198.7 -604.8000000000001 L 198.7 -526.6 z M 119.4 -526.6 L 197.7 -526.6 L 197.7 -604.8000000000001 L 119.39999999999999 -604.8000000000001 L 119.39999999999999 -526.6 z M 40.1 -526.6 L 118.4 -526.6 L 118.4 -604.8000000000001 L 40.1 -604.8000000000001 L 40.1 -526.6 z M -39.1 -526.6 L 39.1 -526.6 L 39.1 -604.8000000000001 L -39.1 -604.8000000000001 L -39.1 -526.6 z M -113.4 -526.6 L -40.10000000000001 -526.6 L -40.10000000000001 -604.8000000000001 L -113.4 -604.8000000000001 L -113.4 -526.6 z M -192.7 -526.6 L -114.39999999999999 -526.6 L -114.39999999999999 -604.8000000000001 L -192.7 -604.8000000000001 L -192.7 -526.6 z M -272 -526.6 L -193.7 -526.6 L -193.7 -604.8000000000001 L -272 -604.8000000000001 L -272 -526.6 z M -351.2 -526.6 L -273 -526.6 L -273 -604.8000000000001 L -351.2 -604.8000000000001 L -351.2 -526.6 z M -425.5 -526.6 L -352.2 -526.6 L -352.2 -604.8000000000001 L -425.5 -604.8000000000001 L -425.5 -526.6 z M -504.8 -526.6 L -426.5 -526.6 L -426.5 -604.8000000000001 L -504.8 -604.8000000000001 L -504.8 -526.6 z M -584 -526.6 L -505.8 -526.6 L -505.8 -604.8000000000001 L -584 -604.8000000000001 L -584 -526.6 z M -663.3 -526.6 L -585 -526.6 L -585 -604.8000000000001 L -663.3 -604.8000000000001 L -663.3 -526.6 z" stroke-linecap="round" />
</g>
</g>
</g>
</svg>